<svg width="90" height="90" viewBox="0 0 84 84" fill="none" xmlns="http://www.w3.org/2000/svg">
    <path fill-rule="evenodd" clip-rule="evenodd"
        d="M0.849999 7.64251C0.849999 5.8145 1.57617 4.06137 2.86877 2.76878C4.16136 1.47618 5.91449 0.750009 7.7425 0.750009H76.45C77.3559 0.74853 78.2532 0.925745 79.0905 1.27151C79.9279 1.61727 80.6888 2.1248 81.3297 2.76502C81.9706 3.40524 82.479 4.1656 82.8256 5.00255C83.1723 5.8395 83.3505 6.7366 83.35 7.64251V76.35C83.351 77.2561 83.1733 78.1535 82.8271 78.9908C82.481 79.8282 81.9731 80.5891 81.3326 81.2299C80.692 81.8708 79.9314 82.3791 79.0943 82.7257C78.2571 83.0723 77.3598 83.2505 76.4537 83.25H7.7425C6.83705 83.25 5.94047 83.0716 5.10399 82.725C4.26751 82.3784 3.50752 81.8703 2.86744 81.2299C2.22736 80.5895 1.71974 79.8292 1.37358 78.9926C1.02742 78.1559 0.849507 77.2592 0.849999 76.3538V7.64251ZM33.505 32.205H44.6763V37.815C46.2887 34.59 50.4137 31.6875 56.6125 31.6875C68.4962 31.6875 71.3125 38.1113 71.3125 49.8975V71.73H59.2863V52.5825C59.2863 45.87 57.6737 42.0825 53.5787 42.0825C47.8975 42.0825 45.535 46.1663 45.535 52.5825V71.73H33.505V32.205ZM12.88 71.2163H24.91V31.6875H12.88V71.2125V71.2163ZM26.6313 18.795C26.6539 19.825 26.4706 20.8492 26.0921 21.8074C25.7136 22.7657 25.1476 23.6386 24.4271 24.3751C23.7067 25.1116 22.8464 25.6968 21.8967 26.0963C20.947 26.4958 19.9271 26.7016 18.8969 26.7016C17.8666 26.7016 16.8467 26.4958 15.897 26.0963C14.9474 25.6968 14.0871 25.1116 13.3666 24.3751C12.6462 23.6386 12.0801 22.7657 11.7016 21.8074C11.3231 20.8492 11.1398 19.825 11.1625 18.795C11.207 16.7732 12.0414 14.8492 13.4871 13.4351C14.9327 12.0209 16.8746 11.2291 18.8969 11.2291C20.9192 11.2291 22.8611 12.0209 24.3067 13.4351C25.7523 14.8492 26.5867 16.7732 26.6313 18.795Z"
        fill="var(--primary-color)" />
</svg>