<svg width="88" height="70" viewBox="0 0 88 70" fill="none" xmlns="http://www.w3.org/2000/svg">
    <path fill-rule="evenodd" clip-rule="evenodd"
        d="M18.2783 0C13.255 0 9.54067 4.38987 9.70933 9.14588C9.867 13.7225 9.66167 19.6428 8.16933 24.472C6.666 29.3122 4.136 32.3804 0 32.7758V37.2242C4.136 37.616 6.66967 40.6841 8.16567 45.528C9.66167 50.3572 9.867 56.2775 9.70567 60.8505C9.54067 65.6101 13.255 70 18.2783 70H69.729C74.7523 70 78.4667 65.6101 78.298 60.8505C78.1403 56.2775 78.3457 50.3572 79.838 45.528C81.3377 40.6841 83.864 37.6196 88 37.2242V32.7758C83.864 32.3804 81.3377 29.3122 79.838 24.472C78.3457 19.6391 78.1403 13.7188 78.298 9.14588C78.4667 4.38621 74.7487 0 69.729 0H18.2783ZM59.6567 43.0896C59.6567 49.6433 54.7617 53.6158 46.64 53.6158H32.813C32.4172 53.6158 32.0376 53.4588 31.7578 53.1793C31.4779 52.8999 31.3207 52.5208 31.3207 52.1256V17.8707C31.3216 17.4761 31.4793 17.098 31.7591 16.8194C32.0388 16.5407 32.4178 16.3842 32.813 16.3842H46.563C53.3353 16.3842 57.783 20.0455 57.783 25.6729C57.783 29.6198 54.791 33.1529 50.9813 33.7753V33.9803C56.1697 34.5478 59.6603 38.1359 59.6603 43.0896H59.6567ZM45.1367 21.1036H37.2533V32.2266H43.8937C49.027 32.2266 51.8577 30.1616 51.8577 26.471C51.8577 23.0148 49.423 21.1036 45.1367 21.1036ZM37.2533 36.6384V48.8927H45.43C50.7723 48.8927 53.6067 46.7509 53.6067 42.7271C53.6067 38.6997 50.6953 36.6384 45.0853 36.6384H37.2533Z"
        fill="var(--primary-color)" />
</svg>