<svg width="80" height="75" viewBox="0 0 80 75" fill="none" xmlns="http://www.w3.org/2000/svg">
    <path
        d="M78.4877 34.1578L43.5562 1.41499C43.0779 0.9664 42.51 0.610544 41.885 0.367754C41.26 0.124964 40.5901 0 39.9135 0C39.237 0 38.5671 0.124964 37.942 0.367754C37.317 0.610544 36.7491 0.9664 36.2709 1.41499L29.0206 8.21199L38.221 16.8371C39.306 16.4898 40.4734 16.4355 41.5898 16.6803C42.7062 16.9252 43.7268 17.4593 44.5349 18.2218C45.343 18.9843 45.9062 19.9444 46.1602 20.9926C46.4142 22.0408 46.3487 23.1348 45.9713 24.1498L54.8367 32.4655C56.1483 32.0326 57.5781 32.0313 58.8906 32.4618C60.2031 32.8923 61.3201 33.7291 62.0577 34.8342C62.7952 35.9393 63.1094 37.2469 62.9484 38.5418C62.7874 39.8366 62.1609 41.0414 61.1719 41.9579C60.1708 42.9022 58.8511 43.4913 57.4381 43.6247C56.025 43.7581 54.6065 43.4274 53.4247 42.6891C52.2429 41.9509 51.3711 40.8509 50.9583 39.577C50.5456 38.3031 50.6174 36.9344 51.1615 35.7047L42.8962 27.9514V48.3564C44.1525 48.9394 45.1578 49.9085 45.7444 51.1021C46.331 52.2957 46.4635 53.6417 46.1198 54.9158C45.7762 56.1899 44.9771 57.3151 43.8558 58.1038C42.7345 58.8925 41.3588 59.2972 39.9578 59.2503C38.5569 59.2034 37.2154 58.7077 36.157 57.846C35.0986 56.9843 34.3872 55.8086 34.1413 54.5147C33.8955 53.2209 34.1301 51.8872 34.8061 50.7359C35.482 49.5845 36.5584 48.6852 37.8559 48.1877V27.5951C37.1074 27.3076 36.4269 26.884 35.8538 26.3487C35.2806 25.8134 34.8262 25.1771 34.5166 24.4764C34.207 23.7757 34.0485 23.0245 34.0501 22.2661C34.0516 21.5077 34.2133 20.7571 34.5258 20.0575L25.4604 11.5542L1.50937 34.0078C1.03085 34.4561 0.651263 34.9885 0.392281 35.5744C0.133299 36.1604 0 36.7884 0 37.4227C0 38.0569 0.133299 38.6849 0.392281 39.2709C0.651263 39.8568 1.03085 40.3892 1.50937 40.8376L36.4409 73.585C36.9192 74.0336 37.487 74.3895 38.112 74.6322C38.7371 74.875 39.407 75 40.0835 75C40.7601 75 41.43 74.875 42.055 74.6322C42.68 74.3895 43.2479 74.0336 43.7262 73.585L78.4927 40.9922C79.4579 40.0861 80 38.8579 80 37.5773C80 36.2968 79.4579 35.0686 78.4927 34.1624"
        fill="var(--primary-color)" />
</svg>