<svg width="80" height="76" viewBox="0 0 80 76" fill="none" xmlns="http://www.w3.org/2000/svg">
    <path
        d="M40 30.6303C43.8326 30.6303 46.9581 33.9057 46.9581 38C46.9581 41.8993 43.8326 45.2138 40 45.2138C36.1674 45.2138 33.0419 41.8993 33.0419 38C33.0419 33.9057 36.1674 30.6303 40 30.6303ZM22.7721 69.1947C25.1163 70.6764 30.2512 68.4148 36.1674 62.5658C34.2326 60.2652 32.3349 57.7696 30.5488 55.1571C27.5503 54.8563 24.5693 54.3878 21.6186 53.7533C19.7209 62.0979 20.4279 67.8299 22.7721 69.1947ZM25.414 46.8125L24.3349 44.8238C23.9256 45.9546 23.5163 47.0854 23.2558 48.1773C24.2605 48.4112 25.3767 48.6062 26.5302 48.8012L25.414 46.8125ZM49.7488 43.849L52.7628 38L49.7488 32.151C48.6326 30.0844 47.4419 28.2517 46.3628 26.419C44.3535 26.302 42.2326 26.302 40 26.302C37.7674 26.302 35.6465 26.302 33.6372 26.419C32.5581 28.2517 31.3674 30.0844 30.2512 32.151L27.2372 38L30.2512 43.849C31.3674 45.9156 32.5581 47.7483 33.6372 49.581C35.6465 49.698 37.7674 49.698 40 49.698C42.2326 49.698 44.3535 49.698 46.3628 49.581C47.4419 47.7483 48.6326 45.9156 49.7488 43.849ZM40 17.6455C39.293 18.5033 38.5488 19.4002 37.8047 20.453H42.1954C41.4512 19.4002 40.707 18.5033 40 17.6455ZM40 58.3545C40.707 57.4967 41.4512 56.5998 42.1954 55.547H37.8047C38.5488 56.5998 39.293 57.4967 40 58.3545ZM57.1907 6.80535C54.8837 5.3236 49.7488 7.58521 43.8326 13.4342C45.7674 15.7348 47.6651 18.2304 49.4512 20.8429C52.5023 21.1549 55.5163 21.6228 58.3814 22.2467C60.2791 13.9021 59.5721 8.17011 57.1907 6.80535ZM54.586 29.1875L55.6651 31.1762C56.0744 30.0454 56.4837 28.9146 56.7442 27.8227C55.7395 27.5888 54.6233 27.3938 53.4698 27.1989L54.586 29.1875ZM59.9814 1.69722C65.4512 4.97266 66.0465 13.5902 63.7395 23.6505C73.1907 26.575 80 31.4101 80 38C80 44.5899 73.1907 49.425 63.7395 52.3495C66.0465 62.4098 65.4512 71.0273 59.9814 74.3028C54.5488 77.5782 47.1442 73.8349 40 66.6991C32.8558 73.8349 25.4512 77.5782 19.9814 74.3028C14.5488 71.0273 13.9535 62.4098 16.2605 52.3495C6.8093 49.425 0 44.5899 0 38C0 31.4101 6.8093 26.575 16.2605 23.6505C13.9535 13.5902 14.5488 4.97266 19.9814 1.69722C25.4512 -1.57822 32.8558 2.16514 40 9.30092C47.1442 2.16514 54.5488 -1.57822 59.9814 1.69722ZM58.9023 38C60.1674 40.9245 61.2837 43.849 62.214 46.8125C70.0279 44.3559 74.4186 40.8465 74.4186 38C74.4186 35.1535 70.0279 31.6441 62.214 29.1875C61.2837 32.151 60.1674 35.0755 58.9023 38ZM21.0977 38C19.8326 35.0755 18.7163 32.151 17.786 29.1875C9.97209 31.6441 5.5814 35.1535 5.5814 38C5.5814 40.8465 9.97209 44.3559 17.786 46.8125C18.7163 43.849 19.8326 40.9245 21.0977 38ZM54.586 46.8125L53.4698 48.8012C54.6233 48.6062 55.7395 48.4112 56.7442 48.1773C56.4837 47.0854 56.0744 45.9546 55.6651 44.8238L54.586 46.8125ZM43.8326 62.5658C49.7488 68.4148 54.8837 70.6764 57.1907 69.1947C59.5721 67.8299 60.2791 62.0979 58.3814 53.7533C55.5163 54.3772 52.5023 54.8451 49.4512 55.1571C47.6651 57.7696 45.7674 60.2652 43.8326 62.5658ZM25.414 29.1875L26.5302 27.1989C25.3767 27.3938 24.2605 27.5888 23.2558 27.8227C23.5163 28.9146 23.9256 30.0454 24.3349 31.1762L25.414 29.1875ZM36.1674 13.4342C30.2512 7.58521 25.1163 5.3236 22.7721 6.80535C20.4279 8.17011 19.7209 13.9021 21.6186 22.2467C24.5693 21.6122 27.5503 21.1437 30.5488 20.8429C32.3349 18.2304 34.2326 15.7348 36.1674 13.4342Z"
        fill="var(--primary-color)" />
</svg>