<svg width="80" height="76" viewBox="0 0 80 76" fill="none" xmlns="http://www.w3.org/2000/svg">
    <path
        d="M40 0.5C62 0.5 80 17.375 80 38C80 58.625 62 75.5 40 75.5C18 75.5 0 58.625 0 38C0 17.375 18 0.5 40 0.5ZM32 50.4219C32.5 52.5313 32.5 54.4062 32 56.0469L31.75 56.75C31.75 56.9844 31.5 57.2187 31.5 57.2187C31 58.1562 30.5 58.8594 29.75 59.7969C27.5 62.1406 24.25 63.0781 22.75 62.375C21.25 61.6719 22 58.1562 24.75 55.5781C27.75 52.7656 31.75 50.8906 31.75 50.8906L32 50.4219ZM65 16.4375C63.25 9.875 51.5 7.53125 40.25 11.2813C33.75 13.625 26.5 17.1406 21.25 21.5938C15 26.9844 14.25 31.6719 14.5 33.5469C16 40.3437 26 45.0313 30.25 48.3125C29 48.7813 20 53 18 57.4531C15.75 62.1406 18.25 65.4219 20 65.6563C25.25 67.0625 30.75 64.4844 33.5 60.5C36.25 56.5156 36 51.5937 34.75 49.0156C36.6948 48.4526 38.762 48.3718 40.75 48.7812C47.75 49.4844 49.25 53.7031 48.75 55.3437C48.25 56.9844 47 57.9219 46.5 58.3906C46 58.625 45.75 58.8594 46 58.8594C46 59.0937 46.25 59.0938 46.75 59.0938C47.25 59.0938 50.5 57.6875 50.5 54.4062C50.75 50.4219 46.5 45.9688 39.25 45.9688C36.25 45.9688 34.25 46.2031 33 46.6719C33 46.4375 32.75 46.4375 32.75 46.4375C28.25 41.9844 20 38.7031 20.25 32.6094C20.25 30.5 21.25 24.6406 36.25 17.6094C48.5 11.75 58.5 13.3906 60.25 16.9062C62.75 21.8281 55 31.2031 42.25 32.6094C37.25 33.0781 34.75 31.4375 34.25 30.7344C33.5 30.0313 33.5 30.0312 33.25 30.0312C32.75 30.2656 33 30.7344 33.25 31.2031C33.75 32.1406 35.25 33.7812 38 34.7187C40.25 35.4219 46 35.8906 53 33.3125C60.75 30.5 66.75 22.7656 65 16.2031V16.4375Z"
        fill="var(--primary-color)" />
</svg>