<svg width="80" height="75" viewBox="0 0 80 75" fill="none" xmlns="http://www.w3.org/2000/svg">
    <path
        d="M66.1528 0L65.5762 2.79925C64.6843 8.10424 65.0072 9.62199 67.4522 11.5908L69.8126 13.4092L67.3676 23.561C65.9068 29.6177 64.1153 34.6936 62.9774 36.3617C62.001 37.8007 60.8631 39.9198 60.617 41.0581C60.2095 42.4184 58.8256 43.7858 56.7112 44.9957C54.8429 45.9837 51.1754 48.6326 48.5767 50.7589C46.5007 52.4986 45.0706 53.5653 44.2941 54.0235L41.7569 55.892C41.1044 56.793 40.6136 57.7868 40.3037 58.8345C40.1269 59.6005 40.2268 60.1088 40.4882 60.4811C40.742 60.8391 41.1802 61.0896 41.7799 61.2471C42.4898 61.4021 43.2206 61.4576 43.9481 61.4118C45.594 61.3071 47.223 61.0383 48.8073 60.61C49.3455 60.4739 49.7684 60.3451 50.1374 60.2305C50.7064 59.579 52.0212 58.3476 54.3508 56.207C60.5325 50.5298 62.8928 47.4227 60.4556 48.2603C59.556 48.561 59.9635 47.8021 61.5089 46.2844C64.7689 43.3276 66.6372 38.8602 70.543 24.8497C73.6338 13.7887 73.6338 13.6312 75.9097 13.6312C76.9784 13.6312 80 13.803 80 13.803V0H73.0649H66.1528ZM38.766 23.6612C36.5209 23.6469 31.6925 26.8328 17.2379 37.8222C16.6151 39.2039 16.5613 40.1561 16.8457 40.7718C17.0303 41.1942 17.3686 41.4877 17.8376 41.7025C18.2989 41.9172 18.8986 42.0461 19.5598 42.0962C20.8746 42.2036 22.4277 42.0103 23.6809 41.7812L24.5267 41.6022C24.8162 41.2407 25.1963 40.9507 25.6338 40.7574C26.5257 40.2992 30.2701 37.1206 34.0144 33.7128C40.6036 27.4986 42.149 24.6921 39.4656 23.7829C39.2455 23.7014 39.0029 23.6601 38.766 23.6612ZM55.6502 27.9782C53.6742 28.0283 50.1144 30.1618 44.0173 34.6936C40.9572 37.006 39.0197 38.2517 37.9817 38.5094L33.9529 41.4734C32.4383 44.0507 32.2153 45.6472 32.6151 46.5278C32.7152 46.745 32.8604 46.9416 33.0426 47.1063C33.2247 47.2709 33.44 47.4004 33.6761 47.4871C34.2635 47.7031 34.8899 47.8124 35.5214 47.8093C37.0305 47.7943 38.5305 47.5896 39.9808 47.2007C40.7366 47.0119 41.4831 46.7921 42.2182 46.5421L42.4411 46.4562L42.8486 46.2557C43.6175 45.3322 45.3859 43.5925 47.6002 41.5879C54.5968 35.3021 58.172 30.8348 57.4416 29.1667C57.111 28.3577 56.5421 27.9496 55.6502 27.9782ZM37.013 35.7102C36.444 35.7675 35.1677 36.6838 32.8688 38.5596C29.5473 41.2944 25.926 42.8694 24.6728 42.1678C24.3815 42.2291 24.0893 42.2863 23.7963 42.3396C22.5199 42.5759 20.9284 42.7692 19.506 42.6618C18.8358 42.624 18.1789 42.4711 17.5685 42.2108C16.9927 41.9656 16.5332 41.5327 16.2768 40.9937C15.9923 40.3494 15.9923 39.5475 16.3152 38.5238L11.3176 42.3468L0.00768586 51.0596V65.1847L37.0668 38.0011C37.0596 37.7035 37.1011 37.4066 37.1898 37.1206C37.4743 36.1612 37.4589 35.6744 37.013 35.7174V35.7102ZM52.9592 40.2849C52.3979 40.2849 51.4599 41.0223 49.9606 42.5043C47.9231 44.5304 44.717 46.492 43.0178 46.8929L42.7564 47.0218C42.4774 47.129 42.1954 47.2293 41.9106 47.3224C41.4493 47.4656 40.8496 47.6375 40.1576 47.8093C38.7737 48.1601 37.0514 48.4822 35.5137 48.4464C34.7887 48.4456 34.0708 48.3143 33.3993 48.0598C32.7664 47.817 32.2593 47.355 31.9846 46.7712C31.5387 45.7761 31.7155 44.38 32.692 42.3969L0 66.3731V75H14.3623L44.8246 52.7205C45.6165 51.9044 46.8083 50.7875 48.4152 49.3915C52.7208 45.6758 53.6973 44.3943 53.6973 42.4971C53.6973 41.0223 53.5204 40.2778 52.9592 40.2778V40.2849ZM60.2095 54.2454L57.6031 56.6652C56.1423 57.9539 53.5358 59.5432 51.752 60.2234L51.3984 60.3665L51.3753 60.4023L51.2984 60.4739C51.2292 60.524 51.1985 60.5312 51.1447 60.5527C50.4326 60.8036 49.7092 61.0258 48.9765 61.2185C47.3474 61.66 45.6717 61.9361 43.9789 62.0418C43.1784 62.0896 42.3749 62.0244 41.5954 61.8485C40.9189 61.7098 40.3217 61.3425 39.9193 60.8176C39.5502 60.2878 39.4426 59.579 39.6502 58.7056C39.8153 58.0838 40.0605 57.4828 40.3806 56.9158L15.8001 75H48.4921L52.3979 70.8333C57.7645 65.0057 60.2095 60.8391 60.2095 57.2738V54.2454Z"
        fill="var(--primary-color)" />
</svg>