<svg width="81" height="81" viewBox="0 0 81 81" fill="none" xmlns="http://www.w3.org/2000/svg">
<path d="M0.656982 40.8577V80.8577H80.657V0.857666H0.656982V40.8577ZM65.1242 37.6577C67.0403 38.1023 68.7818 39.1045 70.129 40.5377C70.8706 41.3098 71.5154 42.1695 72.049 43.0977C72.049 43.2001 68.593 45.5361 66.4874 46.8417C66.4106 46.8929 66.1034 46.5601 65.7642 46.0545C65.3798 45.3912 64.8336 44.8362 64.1767 44.4411C63.5198 44.046 62.7734 43.8238 62.0074 43.7953C59.5818 43.6289 58.0202 44.9025 58.033 46.9953C58.0129 47.5163 58.1322 48.0333 58.3786 48.4929C58.9098 49.6001 59.9018 50.2593 63.0122 51.6033C68.7402 54.0673 71.1914 55.6929 72.7146 58.0033C74.417 60.5633 74.7946 64.6977 73.6426 67.7569C72.3626 71.0849 69.2266 73.3441 64.7914 74.0929C62.7657 74.3249 60.719 74.3034 58.6986 74.0289C55.6152 73.5287 52.7708 72.0605 50.577 69.8369C49.841 69.0241 48.4074 66.9057 48.497 66.7521C48.7306 66.5786 48.9766 66.4225 49.233 66.2849L52.177 64.5953L54.4746 63.2641L54.9546 63.9745C55.7647 65.1332 56.7956 66.1207 57.9882 66.8801C60.5482 68.2241 64.0426 68.0385 65.7706 66.4833C66.3508 65.9134 66.7127 65.1581 66.7934 64.3488C66.8741 63.5396 66.6684 62.7277 66.2122 62.0545C65.5722 61.1649 64.2922 60.4161 60.7146 58.8545C56.5866 57.0753 54.8074 55.9745 53.1818 54.2209C52.167 53.0637 51.4177 51.6984 50.9866 50.2209C50.665 48.5328 50.6175 46.804 50.8458 45.1009C51.697 41.1137 54.6858 38.3297 59.0506 37.5041C61.072 37.254 63.1195 37.3101 65.1242 37.6705V37.6577ZM46.3466 41.0113V44.2881H35.9594V73.8753H28.593V44.2817H18.1802V41.0817C18.1522 39.9801 18.1821 38.8777 18.2698 37.7793C18.3082 37.7281 24.6698 37.7025 32.3498 37.7153H46.3082L46.3466 41.0113Z" fill="var(--primary-color)"/>
</svg>
