<svg width="395" height="232" viewBox="0 0 395 232" fill="none" xmlns="http://www.w3.org/2000/svg">
    <path fillRule="evenodd" clipRule="evenodd"
        d="M86.1451 0.443794C85.9342 0.697801 83.6706 4.31334 81.1152 8.47763L76.4688 16.0497L68.0496 21.8128C63.4191 24.9825 59.5427 27.813 59.4357 28.1029C59.3284 28.3931 58.173 32.5598 56.8683 37.3626C55.5635 42.1655 54.4456 46.1493 54.3836 46.2158C54.322 46.2823 52.0489 44.8692 49.3328 43.0752C46.6166 41.2815 44.2884 39.8139 44.159 39.8139C44.0296 39.8139 39.1771 41.3652 33.3757 43.2609L22.8278 46.7079L11.4864 46.8611C-1.47672 47.0363 -1.26913 46.9833 1.57825 49.3821C2.47208 50.135 6.85998 53.844 11.3291 57.624C15.7983 61.4041 20.3883 65.2859 21.5286 66.2498L23.6027 68.0027L39.4666 68.0033L55.3308 68.004L61.0035 78.6398C64.1235 84.4896 67.3701 90.5903 68.2182 92.1974C69.0664 93.8044 71.4559 98.3049 73.5288 102.198L77.297 109.277L84.6862 118.438C88.7503 123.476 95.3671 131.692 99.3901 136.696L106.705 145.794L112.141 150.079C115.131 152.435 123.027 158.672 129.689 163.939C136.351 169.206 142.56 174.103 143.487 174.822C144.415 175.541 146.14 176.472 147.32 176.89C148.501 177.309 158.022 180.614 168.478 184.235C178.934 187.856 187.709 190.905 187.978 191.011C188.269 191.127 189.14 193.067 190.135 195.815L191.804 200.426L188.801 215.334C187.15 223.533 185.834 230.656 185.877 231.161C185.931 231.788 186.102 232.052 186.416 231.992C186.669 231.943 192.237 229.533 198.789 226.637L210.702 221.37L214.274 217.411C216.238 215.233 217.987 213.299 218.161 213.114C218.334 212.929 221.901 208.951 226.088 204.275L233.699 195.772H247.752H261.806L286.531 189.031L311.256 182.29H323.224H335.191L339.225 180.182C341.443 179.022 346.777 176.243 351.077 174.006C359.48 169.636 360.152 169.18 358.894 168.697C358.64 168.599 353.81 168.008 348.162 167.382C335.822 166.015 336.244 166.309 340.882 162.314C344.265 159.399 353.482 151.561 356.82 148.76C359.244 146.727 359.225 146.757 382.424 107.835L389.638 95.732L392.139 71.0667C393.515 57.5008 394.722 45.6333 394.821 44.6945L395 42.9875L389.547 34.8131C384.712 27.5643 384.003 26.6386 383.286 26.6386C382.842 26.6386 374.281 27.8106 364.262 29.243L346.046 31.8474L328.247 31.849L310.448 31.8508L290.439 37.1926L270.428 42.5344L260.082 50.1626C254.391 54.3581 244.423 61.7126 237.93 66.5057C210.323 86.885 213.149 84.9492 204.66 89.2964C200.444 91.4556 196.167 93.6629 195.155 94.2012C194.143 94.7396 190.003 96.8743 185.956 98.9449C181.908 101.016 177.769 103.153 176.757 103.696C170.28 107.167 159.732 112.432 159.245 112.436C158.927 112.439 152.301 111.447 144.522 110.232L130.378 108.021L128.472 99.885L126.565 91.7488L124.84 89.9104C123.891 88.8993 120.337 85.1765 116.942 81.6376C113.547 78.0986 109.895 74.2723 108.825 73.1349C105.609 69.7131 105.773 69.2127 105.763 82.4802L105.754 93.8936L104.19 92.2084C103.329 91.2815 101.913 89.7649 101.044 88.838C100.174 87.9111 97.7469 85.2914 95.6492 83.0164C93.5515 80.7414 90.9798 77.9837 89.9339 76.8884C88.8883 75.793 87.781 74.6063 87.4732 74.2515C86.9369 73.6328 80.6709 66.8902 79.6976 65.8843C79.4391 65.6171 77.7419 63.7891 75.9263 61.8226L72.6255 58.2466L81.1845 47.996C85.8919 42.3579 89.841 37.5878 89.96 37.3957C90.1559 37.0786 87.881 3.33193 87.5051 0.977546C87.3352 -0.0868907 86.7704 -0.308726 86.1451 0.443794ZM87.4137 18.773C88.026 27.0593 88.4912 33.8798 88.4473 33.9297C88.4035 33.9797 86.0599 30.0838 83.2389 25.2724C79.7338 19.2933 78.1742 16.358 78.3125 15.9982C78.7581 14.8382 85.9422 3.35124 86.1151 3.52282C86.2172 3.62393 86.8016 10.4864 87.4137 18.773ZM78.8338 20.5903C79.7237 22.1443 82.0029 26.0316 83.8985 29.2289C85.7944 32.4262 87.2969 35.0904 87.238 35.1492C87.1791 35.2083 82.8734 34.0606 77.6702 32.5987C72.4666 31.1369 66.7209 29.5246 64.9017 29.016C63.0825 28.5073 61.6778 28.0058 61.7802 27.9013C62.395 27.2732 76.833 17.548 77.0054 17.6458C77.121 17.7113 77.944 19.0362 78.8338 20.5903ZM384.63 30.0381C385.426 31.234 385.998 32.2908 385.902 32.387C385.806 32.4832 382.331 33.2927 378.181 34.1862C374.031 35.0793 370.439 35.9734 370.198 36.1729C369.958 36.3727 365.745 41.121 360.838 46.725L351.915 56.9141L345.9 53.2554C342.592 51.2429 333.936 45.982 326.664 41.5646L313.444 33.5326L330.651 33.3534L347.858 33.1742L365.489 30.5523C375.186 29.1101 383.134 27.9154 383.152 27.8973C383.169 27.8789 383.835 28.8426 384.63 30.0381ZM74.6934 33.2278C81.5834 35.1667 87.4729 36.8592 87.7813 36.9888C88.2566 37.1886 87.1178 38.6937 80.3041 46.8687C75.8831 52.1728 72.2207 56.5651 72.1655 56.6288C72.0199 56.7977 71.8877 56.4631 66.7982 43.0311C61.9243 30.1687 61.7569 29.7026 62.0092 29.7026C62.0957 29.7026 67.8037 31.2889 74.6934 33.2278ZM65.1786 42.6554C67.7279 49.4342 69.9142 55.3027 70.0369 55.6964C70.2101 56.251 68.6509 55.3266 63.1024 51.5842C59.1652 48.929 55.9128 46.7373 55.8745 46.7137C55.7426 46.6328 60.2372 30.3228 60.3902 30.3261C60.4745 30.3283 62.6292 35.8763 65.1786 42.6554ZM310.209 33.775C310.125 33.9925 304.849 51.538 298.484 72.7645C292.119 93.9914 286.807 111.474 286.68 111.614C286.553 111.755 283.983 110.975 280.97 109.879C273.809 107.278 236.4 93.719 224.438 89.3907C219.294 87.5297 214.929 85.9198 214.736 85.8138C214.541 85.706 216.705 83.9175 219.642 81.7592C222.533 79.6355 235.298 70.2235 248.009 60.844C260.72 51.4644 271.483 43.6996 271.926 43.589C272.37 43.4784 281.081 41.1498 291.284 38.4142C301.487 35.6787 309.954 33.4269 310.098 33.4101C310.242 33.3932 310.292 33.5575 310.209 33.775ZM390.173 38.3266C391.859 40.8719 393.283 43.1438 393.338 43.3758C393.421 43.7254 392.009 43.7971 385.036 43.7971H376.634L374.356 46.1717C370.483 50.2082 362.585 58.5901 361.378 59.9456C360.272 61.1865 360.063 61.8352 355.635 77.7169C353.107 86.7827 349.735 98.8788 348.141 104.597C346.546 110.315 345.209 115.026 345.17 115.065C345.13 115.104 341.786 116.982 337.739 119.238C333.691 121.494 325.242 126.204 318.963 129.705L307.546 136.071L304.704 134.555C303.141 133.721 299.931 132.038 297.57 130.815C295.209 129.592 292.018 127.919 290.479 127.099C288.941 126.278 287.492 125.607 287.26 125.609C286.783 125.612 285.655 126.554 278.089 133.272C275.143 135.887 269.283 141.052 265.067 144.75C260.851 148.447 257.332 151.551 257.248 151.647C257.02 151.907 247.063 160.627 246.442 161.11C245.979 161.47 248.237 155.541 250.746 149.812C251.134 148.925 252.265 147.564 253.915 145.997C257.722 142.384 272.914 127.712 278.712 122.049C284.679 116.22 287.31 113.789 287.569 113.864C287.673 113.893 290.379 115.185 293.584 116.734C304.363 121.944 307.004 123.155 307.595 123.155C307.919 123.155 312.488 120.85 317.748 118.032C323.009 115.215 328.613 112.216 330.201 111.368L333.089 109.826L334.534 105.996C341.828 86.6684 352.423 58.8545 352.66 58.4118C352.823 58.1078 357.023 53.2131 361.995 47.5345L371.035 37.2094L378.917 35.4715C383.253 34.5159 386.869 33.726 386.953 33.7165C387.037 33.7067 388.486 35.7813 390.173 38.3266ZM332.454 46.752C342.613 52.9195 350.981 58.0174 351.05 58.0803C351.119 58.1431 350.265 60.5737 349.151 63.4818C346.897 69.3653 339.382 89.1652 334.933 100.939C333.342 105.15 331.942 108.691 331.823 108.806C331.704 108.921 329.743 110.007 327.466 111.22C322.966 113.616 320.471 114.953 312.748 119.108L307.689 121.83L306.462 121.302C305.788 121.011 302.407 119.405 298.95 117.732C295.492 116.06 291.663 114.231 290.441 113.669C289.218 113.106 288.218 112.463 288.218 112.238C288.218 112.013 293.409 94.5573 299.753 73.4472C306.098 52.3368 311.355 34.8306 311.437 34.5444C311.569 34.0799 311.713 34.105 312.785 34.7812C313.445 35.1976 322.296 40.5844 332.454 46.752ZM41.8188 42.2978C41.1926 43.3105 24.3122 64.2067 24.0544 64.2885C23.7726 64.3783 22.4473 52.5611 22.3906 49.4517L22.3679 48.2123L31.9501 45.1183C37.2205 43.4162 41.644 42.0092 41.7804 41.9911C41.9169 41.9734 41.9341 42.1112 41.8188 42.2978ZM49.1528 54.2545C51.9726 60.8489 54.2275 66.2967 54.1635 66.3604C54.0997 66.4245 47.4022 66.441 39.2808 66.3972L24.5146 66.3175L34.0965 54.3005C39.3669 47.6911 43.757 42.2795 43.8523 42.2743C43.9477 42.2694 46.333 47.6605 49.1528 54.2545ZM50.3805 45.4823L54.5517 48.2399L54.5486 55.5935C54.5464 60.8985 54.4554 62.7924 54.222 62.3916C54.0442 62.0858 52.7529 59.1214 51.3529 55.804C49.9525 52.4863 48.1127 48.144 47.2642 46.1545C46.4158 44.1647 45.8313 42.5791 45.9657 42.6309C46.0997 42.6824 48.0863 43.9656 50.3805 45.4823ZM393.214 46.3249C393.137 46.8727 392.045 57.6617 390.786 70.3007C389.528 82.9398 388.383 93.836 388.244 94.5144C388.101 95.2059 386.301 98.5702 384.144 102.174C377.374 113.486 362.267 138.822 360.242 142.26L358.283 145.586L347.704 154.611L337.125 163.637L324.247 171.935C317.164 176.499 311.23 180.396 311.062 180.596C310.893 180.795 299.784 183.947 286.375 187.599L261.996 194.24H247.97C240.255 194.24 233.944 194.154 233.944 194.05C233.944 193.247 240.254 175.163 242.111 170.647C244.615 164.554 244.414 164.844 248.809 160.994C250.155 159.815 251.742 158.419 252.336 157.891C253.634 156.735 262.923 148.543 267.055 144.909C268.683 143.477 272.283 140.312 275.054 137.875C277.825 135.439 280.161 133.371 280.245 133.279C280.33 133.188 281.502 132.149 282.852 130.971C284.201 129.793 285.375 128.759 285.461 128.673C285.546 128.587 285.984 128.193 286.433 127.797L287.249 127.077L293.329 130.225C296.673 131.957 301.197 134.315 303.381 135.465C305.565 136.615 307.461 137.556 307.592 137.556C307.725 137.556 312.561 134.916 318.34 131.69C324.118 128.464 332.71 123.685 337.432 121.071C342.154 118.457 346.113 116.236 346.23 116.136C346.415 115.977 350.414 101.83 359.102 70.5903L361.578 61.6878L364.224 58.9397C370.401 52.5218 376.392 46.1499 376.62 45.7547C376.819 45.4081 378.397 45.3291 385.109 45.3291H393.354L393.214 46.3249ZM20.8353 48.6229C20.8356 48.7494 21.1828 52.4238 21.6068 56.7888C22.0306 61.1535 22.3308 64.7717 22.2731 64.829C22.1799 64.9225 19.9461 63.0602 7.38555 52.4173C5.46971 50.7937 3.60693 49.2274 3.24602 48.936C2.62111 48.4317 3.02003 48.4062 11.7124 48.3998C16.7298 48.3961 20.835 48.4963 20.8353 48.6229ZM64.133 53.9683C68.1308 56.6377 71.5804 59.0748 71.7988 59.3837C72.0171 59.6925 73.8642 61.724 75.9036 63.8976C77.943 66.0712 84.2756 72.8822 89.9762 79.0332C95.6765 85.1842 100.907 90.8278 101.6 91.5745C102.488 92.5323 102.633 92.7939 102.092 92.4624C101.217 91.9259 83.6151 81.9412 67.2128 72.6772L56.0974 66.399V57.5312C56.0974 50.5207 56.1777 48.7105 56.4807 48.8891C56.6916 49.0132 60.1351 51.299 64.133 53.9683ZM64.9897 73.0565C68.7843 75.2038 76.4424 79.5424 82.0078 82.698C87.5731 85.854 95.1301 90.1316 98.8011 92.2044C103.692 94.9657 105.51 96.1454 105.606 96.6184C105.818 97.6682 107.677 126.736 107.562 127.227C107.5 127.498 99.5897 119.88 87.6262 108.027L67.7938 88.3784L62.7123 78.8251C59.9174 73.5706 57.6305 69.1848 57.6305 69.0788C57.6305 68.9725 57.7339 68.9458 57.8605 69.0194C57.9872 69.0926 61.1951 70.9096 64.9897 73.0565ZM118.19 84.9777C121.395 88.3223 124.292 91.3931 124.63 91.8012C125.04 92.2976 125.872 95.1541 127.14 100.419L129.037 108.294L119.181 118.164C113.76 123.592 109.289 127.997 109.244 127.953C109.2 127.908 108.676 120.69 108.081 111.912C107.147 98.1382 106.999 94.4038 107.004 84.6581L107.009 73.3648L109.687 76.1306C111.16 77.6519 114.986 81.633 118.19 84.9777ZM222.48 90.1886C230.257 92.9891 238.497 95.9765 277.294 110.064L285.842 113.168L281.72 117.165C279.453 119.364 273.745 124.886 269.037 129.436C264.329 133.986 258.773 139.363 256.691 141.386C254.609 143.408 252.825 145.132 252.728 145.216C252.512 145.402 252.313 145.907 255.727 137.632C257.274 133.882 258.471 130.636 258.388 130.42C258.305 130.203 252.529 128.193 245.554 125.952L232.871 121.878L213.752 132.495C203.236 138.334 194.58 143.058 194.514 142.993C194.449 142.927 195.07 140.884 195.894 138.453C196.719 136.022 199.831 126.862 202.811 118.099C205.79 109.336 209.324 98.9262 210.664 94.966C213.54 86.4652 213.349 86.9996 213.502 86.9996C213.569 86.9996 217.609 88.4348 222.48 90.1886ZM208.791 96.0841C207.252 100.609 204.429 108.93 202.518 114.576C195.501 135.309 192.791 143.227 192.672 143.351C192.604 143.421 191.618 142.594 190.479 141.513C189.341 140.431 185.86 137.134 182.745 134.185C179.629 131.236 175.766 127.573 174.159 126.046C171.396 123.419 168.808 120.969 163.339 115.805L160.961 113.558L162.726 112.587C164.272 111.737 181.184 102.997 202.207 92.183C205.918 90.2744 209.505 88.3998 210.18 88.0171C210.854 87.6341 211.448 87.4417 211.498 87.5891C211.549 87.7365 210.331 91.5591 208.791 96.0841ZM89.7806 112.154L108.203 130.414L115.343 133.649C119.27 135.429 128.899 139.808 136.742 143.38C144.584 146.952 152.825 150.703 155.055 151.714L159.109 153.553L174.755 156.533C183.36 158.172 190.493 159.606 190.606 159.719C190.807 159.919 190.231 166.937 189.994 167.173C189.929 167.239 181.811 166.482 171.955 165.493L154.033 163.694L149.604 161.383C147.167 160.112 140.689 156.764 135.208 153.944C129.727 151.123 123.587 147.955 121.563 146.903C119.539 145.852 115.814 143.922 113.284 142.615C110.754 141.308 106.917 139.325 104.757 138.208L100.83 136.177L97.2317 131.734C95.253 129.291 90.246 123.085 86.1056 117.944L78.5769 108.597L74.8924 101.705C72.8658 97.9142 71.0383 94.489 70.8313 94.0931C70.5106 93.48 70.5219 93.4119 70.9065 93.6335C71.1551 93.7766 79.6482 102.111 89.7806 112.154ZM143.427 130.238C150.898 141.548 156.97 150.841 156.919 150.89C156.868 150.938 154.273 149.809 151.153 148.381C148.033 146.952 143.411 144.844 140.881 143.696C135.688 141.341 111.878 130.48 110.634 129.899C109.826 129.522 109.851 129.494 119.68 119.619C125.101 114.173 129.605 109.708 129.689 109.696C129.773 109.685 135.955 118.929 143.427 130.238ZM144.637 111.671C151.678 112.769 157.75 113.737 158.129 113.821L158.819 113.975L158.779 125.076C158.757 131.181 158.653 139.343 158.549 143.212L158.359 150.247L153.005 142.139C150.06 137.68 144.028 128.551 139.6 121.853C135.173 115.154 131.614 109.673 131.693 109.673C131.771 109.673 137.596 110.572 144.637 111.671ZM161.017 115.436C161.073 115.572 163.878 118.283 167.251 121.459C170.624 124.636 174.626 128.427 176.144 129.883C178.707 132.343 190.986 143.951 191.868 144.748C192.187 145.036 192.142 146.311 191.628 151.502C191.28 155.021 190.938 157.958 190.868 158.028C190.769 158.126 163.77 153.09 160.735 152.407L160.046 152.251L160.046 142.223C160.047 129.437 160.382 115.188 160.682 115.188C160.81 115.188 160.96 115.3 161.017 115.436ZM239.455 125.474C252.557 129.665 254.926 130.477 254.484 130.627C254.233 130.712 247.612 132.18 239.77 133.89C221.674 137.834 199.313 142.723 198.574 142.896C198.262 142.97 198.082 142.955 198.174 142.863C198.381 142.656 232.815 123.496 233.016 123.476C233.095 123.468 235.993 124.367 239.455 125.474ZM256.352 132.424C256.204 132.803 252.16 142.627 247.363 154.255C240.774 170.23 237.947 177.493 235.795 183.975C234.229 188.694 232.86 192.652 232.753 192.771C232.647 192.891 231.384 191.512 229.947 189.707C228.511 187.903 223.12 181.187 217.967 174.783C212.814 168.38 205.387 159.146 201.462 154.265C196.84 148.516 194.472 145.34 194.741 145.247C195.436 145.009 255.524 131.809 256.09 131.77C256.517 131.741 256.568 131.867 256.352 132.424ZM113.591 144.373C118.144 146.727 124.423 149.966 127.543 151.571C130.663 153.175 134.319 155.071 135.668 155.784C137.018 156.496 141.64 158.88 145.94 161.081L153.76 165.083L170.931 166.793C180.375 167.733 188.522 168.572 189.035 168.658L189.968 168.813L188.988 178.943C188.449 184.515 187.94 189.142 187.857 189.225C187.773 189.309 185.518 188.62 182.845 187.696C171.767 183.866 159.223 179.516 147.78 175.536C146.375 175.047 144.916 174.156 142.833 172.515C141.209 171.235 133.777 165.362 126.319 159.463C118.861 153.565 111.67 147.893 110.341 146.859C108.336 145.299 106.501 143.305 103.498 139.423C103.264 139.121 103.484 139.156 104.239 139.543C104.829 139.845 109.037 142.019 113.591 144.373ZM197.808 151.957C219.827 179.369 224.756 185.502 227.859 189.337C229.836 191.781 231.358 193.864 231.242 193.965C231.126 194.067 222.488 195.281 212.048 196.663C196.901 198.667 193.015 199.095 192.82 198.778C192.685 198.56 191.857 196.406 190.981 193.991L189.387 189.6L191.303 169.629C193.571 145.995 193.499 146.648 193.776 146.961C193.896 147.096 195.71 149.345 197.808 151.957ZM335.871 167.538C336.022 167.782 333.731 180.729 333.495 180.964C333.435 181.024 328.803 181.037 323.202 180.992L313.018 180.911L323.539 174.104C333.544 167.63 335.337 166.675 335.871 167.538ZM346.938 168.663C350.985 169.09 354.678 169.538 355.144 169.66C355.949 169.87 355.88 169.939 353.764 171.025C352.539 171.654 347.949 174.032 343.565 176.309C339.18 178.586 335.474 180.45 335.329 180.451C335.184 180.451 335.141 180.141 335.233 179.762C335.326 179.383 335.832 176.729 336.359 173.864C337.609 167.065 337.438 167.532 338.605 167.726C339.141 167.815 342.89 168.236 346.938 168.663ZM231.797 195.651C231.797 195.753 230.452 197.312 228.808 199.114C227.164 200.917 223.058 205.482 219.685 209.259C216.312 213.037 212.733 217.028 211.731 218.129L209.909 220.131L198.736 225.121C192.591 227.866 187.513 230.062 187.452 230.001C187.305 229.854 193.104 200.936 193.324 200.717C193.467 200.573 229.7 195.587 231.261 195.497C231.556 195.48 231.797 195.549 231.797 195.651Z"
        fill="var(--primary-color)" />
</svg>