<svg width="397" height="236" viewBox="0 0 397 236" fill="none" xmlns="http://www.w3.org/2000/svg">
    <path fillRule="evenodd" clipRule="evenodd"
        d="M249.18 1.27991L264.998 2.39858L277.214 6.28866C283.933 8.42846 292.179 10.8267 295.538 11.6182C298.898 12.4098 307.89 14.5305 315.521 16.3306C323.152 18.1308 329.757 19.6035 330.199 19.6035C330.731 19.6035 332.156 18.7028 334.415 16.9378C337.119 14.825 338.038 14.2736 338.844 14.2802C339.403 14.2846 342.186 14.628 345.029 15.0432L350.197 15.7984L351.558 17.2937C354.854 20.9151 355.642 22.0801 357.217 25.6591C358.733 29.1061 359.51 30.258 368.418 42.266L377.99 55.1694L381.709 65.063C383.755 70.5045 385.431 75.1972 385.432 75.4913C385.434 75.7855 384.362 78.906 383.051 82.426L380.667 88.8257L384.279 95.5336C386.266 99.2226 390.017 106.188 392.614 111.012C396.309 117.874 397.252 119.859 396.946 120.136C396.731 120.331 391.763 123.073 385.905 126.228L375.256 131.966L366.798 131.59L358.341 131.213L342.836 126.167C334.309 123.391 326.877 120.967 326.322 120.78C325.767 120.593 325.274 120.268 325.226 120.058C325.12 119.593 314.804 112.447 313.706 112.078C312.922 111.815 300.564 110.552 298.771 110.552C297.878 110.552 297.627 110.866 294.7 115.648L291.58 120.744L292.418 130.623L293.256 140.502L297.48 150.695C299.803 156.301 303.3 164.768 305.25 169.512C308.796 178.134 308.799 178.14 316.298 190.688L323.799 203.239L335.275 204.443C341.811 205.129 346.906 205.801 347.11 206.004C347.307 206.201 348.733 208.351 350.278 210.783C352.832 214.803 353.055 215.277 352.738 216.003C352.546 216.442 351.198 218.51 349.741 220.598L347.092 224.394H321.319H295.546L291.139 217.787C288.715 214.153 283.765 206.356 280.139 200.46C276.513 194.564 273.455 189.669 273.344 189.583C273.233 189.497 271.592 187.733 269.697 185.663C267.802 183.593 265.463 181.053 264.5 180.018C263.537 178.983 260.925 176.16 258.697 173.745L254.646 169.355L249.52 156.723C246.701 149.776 244.349 144.137 244.293 144.193C244.237 144.249 242.234 149.157 239.841 155.1C237.448 161.043 233.709 170.305 231.532 175.684C228.289 183.696 227.064 187.207 224.752 195.128C223.2 200.444 221.929 205.037 221.929 205.336C221.929 205.764 224.538 212.057 224.842 212.362C224.883 212.403 226.993 213.01 229.53 213.711C233.827 214.899 234.421 214.986 238.204 214.986H242.264L245.46 218.984C247.218 221.184 248.775 223.139 248.919 223.33C249.222 223.73 248.398 232.208 248.021 232.568C247.883 232.7 244.176 233.526 239.783 234.404L231.796 236L217.455 235.999L203.113 235.998L195.625 232.663L188.138 229.328L185.253 225.215C183.666 222.952 182.313 220.89 182.247 220.631C182.181 220.372 182.836 209.76 183.704 197.049C184.571 184.338 185.281 173.268 185.281 172.451C185.281 171.626 184.619 168.615 183.793 165.69C182.323 160.48 182.294 160.415 181.366 160.275C180.849 160.197 177.184 159.985 173.222 159.803C167.693 159.55 163.322 159.576 154.428 159.913L142.838 160.352L136.682 159.117L130.525 157.882L127.064 160.581C125.162 162.065 123.535 163.517 123.45 163.808C123.365 164.099 122.648 168.853 121.856 174.373C120.785 181.837 119.969 186.239 118.671 191.555L116.927 198.701L119.193 202.132C121.142 205.083 121.595 205.585 122.438 205.716C123.327 205.855 136.934 206.457 142.679 206.612L145.025 206.675L146.663 210.752C147.564 212.994 148.304 215.111 148.308 215.456C148.318 216.285 146.198 221.925 145.674 222.463C145.449 222.695 143.103 223.789 140.462 224.896C137.821 226.003 135.524 227.045 135.357 227.212C135.172 227.398 134.919 227.403 134.707 227.228C134.517 227.069 124.71 226.574 112.915 226.128C101.119 225.681 91.259 225.241 91.0028 225.15C90.2448 224.88 80.212 218.652 79.9752 218.305C79.8559 218.13 79.0186 215.004 78.115 211.359L76.4717 204.731L78.0636 184.847C78.9394 173.912 79.5925 164.898 79.5154 164.817C79.4383 164.735 79.277 164.806 79.1574 164.974C79.0374 165.141 77.6003 166.487 75.9637 167.964C72.6845 170.923 54.9368 186.842 52.9334 188.621C51.0788 190.267 45.7463 195.121 43.5634 197.149C42.5194 198.119 41.2067 199.296 40.6469 199.764L39.6289 200.615L39.6324 204.586L39.6358 208.557L45.1922 211.946C48.2481 213.81 52.2991 216.21 54.1941 217.278L57.6397 219.22L57.7252 224.596L57.8107 229.973L54.3887 232.986L50.9666 235.998L44.593 235.984L38.2194 235.969L33.6324 233.396C29.3152 230.975 28.7445 230.538 23.9285 225.962C13.3338 215.897 13.5475 216.13 8.58306 209.221C5.96602 205.578 3.67004 202.457 3.48116 202.284C2.6796 201.553 2.3197 199.999 1.26505 192.719C0.652688 188.493 0.0857402 184.737 0.00461343 184.371C-0.195228 183.47 6.10635 174.687 17.1578 160.462L25.7725 149.374L26.6414 143.84C27.1194 140.797 28.2308 133.738 29.1109 128.153L30.7116 117.999L29.8743 106.705L29.037 95.4103L35.7145 77.0296L42.3919 58.6486L49.1906 49.7106C54.1287 43.2191 56.601 40.2441 58.2242 38.8423C59.4533 37.7807 63.9121 33.8981 68.1329 30.2141C72.3537 26.5303 77.1261 22.3684 78.7383 20.9652C81.3697 18.6749 82.762 17.8294 92.3638 12.6917C98.2457 9.5443 103.556 6.69824 104.165 6.36706C105.27 5.76586 105.3 5.76712 119.2 7.0266C126.861 7.72031 144.659 9.22284 158.751 10.3647L184.374 12.4415L196.182 10.8339L207.99 9.22598L216.604 5.74296C221.342 3.82709 226.487 1.72524 228.037 1.07198C230.189 0.165633 231.153 -0.082753 232.109 0.0226218C232.798 0.0988303 240.48 0.664593 249.18 1.27991ZM219.917 5.82482C214.072 8.23119 209.238 10.2531 209.173 10.3177C209.018 10.4735 188.727 87.7035 188.727 88.1404C188.727 88.327 192.075 89.5084 196.166 90.7654C200.258 92.0223 207.975 94.3917 213.315 96.03C218.656 97.6687 226.831 100.18 231.483 101.61C236.134 103.041 244.803 105.702 250.746 107.524C256.69 109.346 268.013 112.819 275.908 115.242C283.804 117.664 290.361 119.647 290.481 119.647C290.601 119.647 292.071 117.403 293.748 114.66L296.798 109.672L280.663 82.7494L264.529 55.8261V29.7176V3.60913H263.82C263.43 3.60913 256.488 3.1155 248.393 2.51211C240.298 1.90871 232.971 1.42291 232.109 1.43232C230.835 1.44612 228.564 2.26403 219.917 5.82482ZM265.785 29.7176L265.788 55.1989L293.404 71.5069C328.445 92.1998 328.741 92.3726 328.741 92.1437C328.741 92.0386 327.181 86.8583 325.275 80.6321C323.368 74.4056 318.7 59.1504 314.9 46.7312C311.101 34.3121 307.833 23.9901 307.638 23.7931C307.444 23.5962 304.465 22.1316 301.02 20.5378C297.574 18.9443 292.571 16.6188 289.9 15.37C287.23 14.1215 283.142 12.216 280.817 11.1362C278.491 10.0561 274.222 8.06184 271.331 6.70451C268.44 5.34687 266.008 4.23636 265.928 4.23636C265.847 4.23636 265.783 15.7031 265.785 29.7176ZM96.7935 11.786C91.9698 14.3802 86.7811 17.1652 85.2632 17.9746C83.5226 18.9032 81.3152 20.4892 79.2861 22.2692C77.517 23.8216 74.178 26.7383 71.8663 28.7504C69.5544 30.7626 67.1697 32.8409 66.5668 33.3687C65.9638 33.8965 63.4971 36.0555 61.0852 38.1661C56.9631 41.7736 56.3244 42.4977 50.4354 50.239C46.9898 54.7683 44.1708 58.6057 44.1708 58.7665C44.1708 59.126 45.388 60.4983 50.8811 66.3322C54.7295 70.4189 57.7142 73.626 60.0193 76.1512L60.8234 77.0318L74.11 69.3805C81.4177 65.1721 93.4927 58.2221 100.944 53.9359C109.752 48.8692 114.489 45.9717 114.486 45.653C114.483 45.3836 112.308 36.9145 109.651 26.833C106.994 16.7512 104.891 8.38957 104.976 8.25126C105.061 8.11296 105.33 7.99974 105.574 7.99974C106.107 7.99974 105.813 6.97265 111.506 28.6764C114.013 38.2373 116.099 46.0855 116.14 46.1169C116.18 46.1482 117.553 46.9454 119.19 47.8885C120.826 48.8315 124.28 50.8465 126.864 52.3663C141.894 61.2071 184.709 86.3233 185.846 86.9669C186.587 87.3865 187.251 87.6725 187.321 87.6019C187.537 87.3855 207.612 10.8088 207.484 10.6887C207.418 10.6266 202.219 11.2864 195.931 12.1551L184.498 13.7345L160.223 11.7838C139.735 10.1373 112.925 7.83949 107.13 7.23327C105.594 7.0727 105.395 7.16082 96.7935 11.786ZM277.841 8.19795C278.856 8.77563 286.484 12.3468 315.585 25.8677C320.495 28.1489 324.739 30.1366 325.017 30.2853C325.438 30.5104 325.838 29.8086 327.444 26.0358C329.177 21.9628 329.567 20.858 329.271 20.858C329.044 20.858 314.693 17.5054 301.895 14.4627C294.28 12.6519 285.893 10.4748 283.258 9.62427C280.623 8.77406 278.115 7.98469 277.684 7.87054C276.994 7.6877 277.012 7.72658 277.841 8.19795ZM334.567 18.498L330.84 21.4344L328.692 26.4613L326.544 31.488L327.713 37.8321L328.883 44.1762L332.023 45.6555C337.664 48.3134 337.25 48.2215 338.482 47.0872C339.652 46.0099 346.135 40.0534 348.628 37.7647C349.491 36.9728 351.254 35.3373 352.546 34.1305C353.838 32.9237 355.484 31.4124 356.204 30.7717L357.513 29.6072L355.972 26.1437C354.85 23.6225 353.88 22.0196 352.408 20.2527C351.296 18.9176 350.161 17.6381 349.885 17.4091C349.443 17.0419 340.553 15.5387 338.921 15.5554C338.576 15.5591 336.617 16.8832 334.567 18.498ZM309.634 24.8801C309.634 25.0225 311.171 30.1385 313.05 36.2487C314.929 42.3591 319.099 55.9672 322.317 66.489C325.535 77.0108 328.681 87.2808 329.308 89.3108C329.936 91.3412 330.593 92.9557 330.769 92.8986C346.881 87.6828 383.857 75.1758 383.862 74.9397C383.866 74.7581 382.28 70.3832 380.337 65.2176L376.805 55.8261L367.622 43.4383C362.571 36.625 358.325 31.0505 358.185 31.0505C358.046 31.0505 357.39 31.5476 356.727 32.155C356.064 32.7625 352.226 36.2907 348.198 39.9954C344.17 43.7002 340.223 47.3281 339.428 48.0572C338.632 48.7864 337.762 49.3863 337.494 49.3901C337.086 49.3957 328.204 45.5147 327.878 45.1873C327.793 45.1023 325.297 32.2585 325.296 31.9016C325.295 31.8524 324.696 31.5535 323.964 31.2371C322.6 30.6475 314.158 26.7119 311.38 25.37C309.631 24.5251 309.634 24.526 309.634 24.8801ZM110.576 49.9163C108.336 51.2191 99.8084 56.1325 91.6252 60.8348C83.4421 65.5369 73.5048 71.2478 69.5424 73.5259C65.5801 75.8037 62.2392 77.7638 62.1179 77.8811C61.9203 78.073 64.7939 81.2255 78.6055 95.9689C80.8676 98.3837 84.6815 102.476 87.0806 105.064C89.4796 107.651 92.5884 110.968 93.9892 112.434C95.3896 113.9 97.5046 116.158 98.6886 117.452C99.8726 118.745 100.921 119.874 101.019 119.96C101.116 120.047 103.234 122.305 105.724 124.978C108.214 127.652 111.05 130.686 112.026 131.721C113.003 132.756 114.238 134.075 114.771 134.653C115.439 135.377 115.786 135.572 115.889 135.28C115.971 135.048 118.176 124.149 120.788 111.062L125.537 87.2676L120.465 67.9401C114.541 45.3689 115.129 47.5112 114.862 47.5313C114.744 47.5401 112.815 48.6133 110.576 49.9163ZM116.684 48.2874C116.684 48.3671 118.939 57.0109 121.695 67.4963C124.451 77.9814 126.707 86.8922 126.707 87.2977C126.707 87.7032 124.582 98.6885 121.984 111.709C119.387 124.73 117.308 135.426 117.364 135.477C117.51 135.61 186.047 89.2766 186.147 88.9774C186.192 88.8416 181.259 85.8184 175.184 82.2585C169.108 78.699 157.725 72.0215 149.886 67.4201C114.374 46.5735 116.684 47.9042 116.684 48.2874ZM267.915 58.8838C268.255 59.4446 275.12 70.911 283.17 84.3651C291.22 97.8192 297.834 108.86 297.869 108.901C298.001 109.058 327.455 103.476 327.68 103.251C328.019 102.912 329.347 94.4441 329.101 94.191C328.989 94.0756 325.021 91.694 320.284 88.8987C315.546 86.1031 306.595 80.819 300.393 77.1557C274.233 61.7039 267.686 57.8646 267.497 57.8646C267.386 57.8646 267.575 58.3231 267.915 58.8838ZM37.1387 77.0005C33.8138 86.1536 31.1595 93.7093 31.2409 93.7905C31.4455 93.9953 59.3625 77.9369 59.3625 77.6142C59.3625 77.4709 59.1789 77.167 58.9546 76.939C58.7304 76.7113 55.1877 72.926 51.0825 68.5275C46.977 64.1291 43.5205 60.4914 43.4012 60.4441C43.2821 60.3967 40.464 67.847 37.1387 77.0005ZM357.088 85.5305C342.617 90.3702 330.739 94.36 330.693 94.3967C330.647 94.4334 330.332 96.2135 329.993 98.3523C329.654 100.491 329.325 102.55 329.262 102.927C329.162 103.529 330.336 104.313 338.733 109.256C344.005 112.359 354.303 118.43 361.618 122.747L374.918 130.595L378.532 128.673C380.52 127.616 382.629 126.45 383.218 126.082L384.289 125.412L386.569 116.179L388.849 106.945L387.715 104.75C387.091 103.543 384.984 99.6209 383.033 96.0353C381.081 92.4495 379.489 89.2035 379.494 88.8222C379.499 88.4405 380.467 85.5531 381.645 82.405C382.823 79.2569 383.7 76.6928 383.594 76.7063C383.487 76.7198 371.559 80.6908 357.088 85.5305ZM57.0132 80.7225C32.5825 94.8273 31.7725 95.2695 31.3728 94.7219C29.9003 92.706 30.3538 99.5334 35.5403 157.437C37.4407 178.654 39.0808 196.682 39.1848 197.501L39.3743 198.989L40.3907 198.128C40.9498 197.654 45.0597 193.966 49.5236 189.932C53.9874 185.899 58.7645 181.594 60.1393 180.367C63.6553 177.228 65.5312 175.537 67.3451 173.869C68.209 173.074 70.9598 170.604 73.4578 168.38C75.9558 166.157 78.4225 163.947 78.9394 163.471C79.4562 162.995 87.546 157.073 96.9166 150.313C106.288 143.552 114.215 137.803 114.534 137.537C115.092 137.071 115.077 137.01 114.151 135.955C113.621 135.351 112.24 133.869 111.083 132.662C108.973 130.46 102.696 123.75 95.384 115.88C93.2305 113.562 90.2598 110.392 88.7823 108.835C87.3048 107.278 83.0139 102.688 79.247 98.6346C75.4804 94.5811 70.2616 89.0066 67.6502 86.2468C65.0388 83.487 62.4437 80.6999 61.883 80.0529C61.3223 79.4062 60.7021 78.8853 60.5045 78.8953C60.3072 78.9057 58.736 79.728 57.0132 80.7225ZM188.28 91.1718C188.184 91.9129 187.053 107.62 185.767 126.076L183.429 159.633L185.064 165.331L186.699 171.029L188.887 173.144C190.091 174.308 196.15 180.223 202.352 186.288C218.973 202.544 220.5 203.995 220.727 203.756C220.841 203.637 222.125 199.44 223.58 194.43C225.548 187.653 227.034 183.318 229.383 177.495C231.121 173.19 235.072 163.388 238.164 155.713L243.786 141.757L249.694 138.983C255.047 136.47 281.591 124.138 286.918 121.689L289.104 120.684L288.014 120.334C287.016 120.013 190.188 90.3348 188.983 89.9798C188.564 89.8562 188.42 90.0992 188.28 91.1718ZM151.082 114.422C128.522 129.689 109.913 142.55 99.5074 150.068C90.5533 156.536 83.2688 161.871 83.319 161.923C83.3691 161.975 93.9591 160.785 106.852 159.278L130.293 156.538L136.723 157.794L143.152 159.049L154.115 158.625C162.924 158.284 166.724 158.274 173.459 158.575C178.069 158.78 181.919 158.87 182.015 158.774C182.11 158.678 182.668 151.847 183.255 143.593C187.166 88.5537 187.046 90.4568 186.612 90.5088C186.483 90.5245 170.495 101.285 151.082 114.422ZM326.078 105.063C325.906 105.122 320.567 106.128 314.214 107.299C307.86 108.47 302.786 109.469 302.938 109.52C303.089 109.57 305.762 109.872 308.878 110.191L314.542 110.771L319.684 114.316C322.512 116.265 324.983 117.982 325.176 118.13C325.426 118.323 325.766 116.88 326.353 113.144C327.684 104.675 327.667 104.903 326.982 104.932C326.658 104.945 326.251 105.004 326.078 105.063ZM327.827 112.135C326.923 118.054 326.833 119.122 327.207 119.479C327.448 119.708 334.622 122.153 343.149 124.912L358.654 129.928L365.232 130.245C368.85 130.42 371.852 130.523 371.903 130.473C372.007 130.374 330.115 105.672 329.361 105.388C328.963 105.238 328.713 106.337 327.827 112.135ZM387.752 116.839C386.7 121.155 385.925 124.646 386.029 124.597C388.503 123.43 395.459 119.517 395.459 119.292C395.459 119.122 395.13 118.392 394.728 117.669C394.325 116.946 393.104 114.695 392.014 112.669C390.923 110.642 389.949 108.985 389.848 108.987C389.747 108.989 388.804 112.522 387.752 116.839ZM285.828 123.599C280.219 126.233 276.868 127.798 273.456 129.379C268.799 131.536 267.183 132.287 259.987 135.641C256.197 137.407 252.391 139.173 251.529 139.564C250.668 139.955 248.884 140.776 247.564 141.387L245.164 142.499L247.819 149.028C249.278 152.618 251.611 158.378 253.002 161.828C254.393 165.278 255.564 168.14 255.603 168.189C255.729 168.346 306.967 177.924 307.082 177.813C307.211 177.688 307.352 178.038 298.65 156.967L291.979 140.816L291.175 131.354C290.732 126.15 290.3 121.83 290.213 121.753C290.127 121.677 288.154 122.507 285.828 123.599ZM28.9957 137.181L26.9766 150.019L18.2375 161.255C8.1887 174.174 1.6782 183.121 1.50217 184.252C1.39222 184.958 3.39408 199.04 3.78249 200.293C3.87082 200.578 4.25515 200.885 4.63667 200.976C5.01818 201.067 8.78353 201.863 13.0043 202.745C17.2251 203.627 24.5547 205.161 29.2923 206.153L37.9062 207.957L37.9967 204.023C38.0665 200.999 37.3192 191.463 34.7635 162.769C32.9355 142.243 31.3443 125.2 31.2274 124.896C31.1106 124.591 30.1064 130.119 28.9957 137.181ZM120.129 159C116.942 159.388 107.357 160.509 98.8295 161.492C90.3018 162.474 83.0493 163.387 82.7125 163.519C82.1929 163.724 84.643 166.308 98.9357 180.631C108.195 189.91 115.814 197.449 115.867 197.384C115.919 197.319 116.619 194.618 117.422 191.381C118.415 187.378 119.382 182.114 120.446 174.917C121.307 169.098 122.094 163.94 122.196 163.454C122.328 162.824 123.135 161.979 125.014 160.506C126.462 159.37 127.647 158.391 127.647 158.331C127.647 158.138 126.052 158.28 120.129 159ZM80.8545 166.285C80.7539 167.111 80.0172 176.043 79.2175 186.133L77.7635 204.48L79.1264 210.063C79.8759 213.134 80.5873 215.805 80.7069 215.999C80.8579 216.244 86.829 214.787 100.135 211.261C110.701 208.461 119.527 206.11 119.749 206.036C120.014 205.948 119.408 204.795 117.972 202.651C116.056 199.791 113.762 197.365 98.9107 182.496C89.6252 173.198 81.8051 165.409 81.5329 165.187C81.0972 164.831 81.0155 164.963 80.8545 166.285ZM257.33 170.104C257.332 170.209 258.908 171.989 260.83 174.059C275.326 189.666 274.188 188.249 280.501 198.556C288.86 212.202 296.115 223.14 296.809 223.14C297.21 223.14 321.857 206.082 323.407 204.731C323.488 204.66 323.376 204.492 323.157 204.357C322.938 204.221 319.418 198.55 315.335 191.754L307.911 179.397L283.479 174.821C270.041 172.304 258.66 170.171 258.186 170.079C257.712 169.987 257.327 169.998 257.33 170.104ZM186.533 173.787C186.533 174.282 185.832 184.918 184.975 197.423L183.419 220.161L185.456 223.14C186.576 224.779 187.757 226.465 188.08 226.888L188.667 227.656L191.908 226.287C193.69 225.534 197.333 223.971 200.003 222.814C202.673 221.656 209.016 218.908 214.098 216.707C219.181 214.506 223.365 212.686 223.397 212.663C223.429 212.64 222.821 211.142 222.045 209.335C220.677 206.145 220.532 205.947 217.132 202.628C207.421 193.147 190.398 176.49 189.836 175.918C189.484 175.561 188.597 174.733 187.865 174.078L186.534 172.888L186.533 173.787ZM5.9939 203.328C6.29523 203.789 8.33279 206.636 10.5213 209.654C13.9459 214.377 15.1722 215.777 19.3125 219.688C21.959 222.188 25.4631 225.514 27.0997 227.079C29.4921 229.366 30.8243 230.335 33.8955 232.02C35.997 233.173 37.794 234.116 37.8892 234.116C37.9848 234.116 38.0628 228.545 38.0628 221.735V209.353L37.358 209.187C36.9702 209.095 29.8874 207.611 21.6182 205.889C13.3489 204.166 6.32717 202.697 6.01457 202.623C5.47017 202.495 5.46924 202.525 5.9939 203.328ZM312.951 213.76C305.902 218.745 300.065 222.894 299.978 222.982C299.89 223.069 309.956 223.137 322.346 223.133L344.872 223.126L341.427 219.778C336.073 214.576 330.366 209.069 327.958 206.781L325.765 204.698L312.951 213.76ZM328.428 205.197C328.428 205.36 329.116 206.113 329.956 206.869C331.106 207.902 343.24 219.564 346.15 222.432C346.467 222.744 347.051 222.097 349.089 219.179C350.488 217.176 351.592 215.44 351.542 215.321C351.491 215.203 350.284 213.267 348.858 211.018L346.266 206.931L338.208 206.085C333.776 205.62 329.763 205.163 329.289 205.07C328.815 204.977 328.428 205.034 328.428 205.197ZM118.25 207.76C117.13 208.067 108.391 210.398 98.8295 212.941C89.2682 215.484 81.4086 217.597 81.3638 217.637C81.319 217.677 83.5742 219.127 86.3755 220.86L91.4686 224.01L112.296 224.805C123.751 225.243 133.174 225.551 133.236 225.489C133.447 225.278 120.96 207.146 120.623 207.174C120.437 207.189 119.37 207.453 118.25 207.76ZM122.83 207.512C123.705 208.96 134.943 225.355 135.146 225.481C135.281 225.564 137.489 224.743 140.054 223.656L144.718 221.68L145.923 218.649L147.129 215.618L145.609 211.774L144.089 207.93L137.982 207.737C134.623 207.631 129.778 207.434 127.215 207.3C123.182 207.09 122.592 207.119 122.83 207.512ZM39.6289 222.513V234.744H44.9971H50.3652L51.6579 233.568C52.369 232.921 53.7591 231.701 54.747 230.856L56.5434 229.321V224.689V220.059L53.0195 218.102C51.0816 217.026 47.3507 214.826 44.7289 213.214C42.1072 211.601 39.8873 210.282 39.7956 210.282C39.7038 210.282 39.6289 215.786 39.6289 222.513ZM217.231 216.768C213.871 218.236 206.401 221.484 200.63 223.985C194.858 226.486 190.098 228.568 190.052 228.612C190.006 228.656 193.036 230.055 196.787 231.722L203.605 234.752L216.873 234.748C227.353 234.745 230.11 234.661 229.997 234.352C229.919 234.136 228.535 229.479 226.922 224.002C225.31 218.526 223.843 214.057 223.664 214.072C223.485 214.087 220.59 215.3 217.231 216.768ZM225.454 214.437C225.534 214.653 226.912 219.275 228.516 224.708C230.12 230.141 231.455 234.621 231.482 234.663C231.579 234.815 246.699 231.688 246.915 231.472C247.036 231.35 247.286 229.62 247.469 227.628L247.803 224.005L244.704 220.123L241.604 216.24L237.64 216.238C234.076 216.235 233.279 216.124 229.76 215.143C225.345 213.911 225.252 213.896 225.454 214.437Z"
        fill="var(--primary-color)" />
</svg>