<svg width="18" height="21" viewBox="0 0 18 21" fill="none" xmlns="http://www.w3.org/2000/svg">
    <path
        d="M9 15.2727C7.86818 15.2727 6.90355 14.8072 6.10609 13.8762C5.30809 12.9459 4.90909 11.8205 4.90909 10.5C4.90909 9.17955 5.30809 8.05382 6.10609 7.12282C6.90355 6.19245 7.86818 5.72727 9 5.72727C10.1318 5.72727 11.0967 6.19245 11.8947 7.12282C12.6922 8.05382 13.0909 9.17955 13.0909 10.5C13.0909 11.8205 12.6922 12.9459 11.8947 13.8762C11.0967 14.8072 10.1318 15.2727 9 15.2727ZM0 11.4545V9.54545H3.27273V11.4545H0ZM14.7273 11.4545V9.54545H18V11.4545H14.7273ZM8.18182 3.81818V0H9.81818V3.81818H8.18182ZM8.18182 21V17.1818H9.81818V21H8.18182ZM4.37727 6.44318L2.35227 4.08068L3.49773 2.74432L5.52273 5.10682L4.37727 6.44318ZM14.5023 18.2557L12.4773 15.8932L13.6227 14.5568L15.6477 16.9193L14.5023 18.2557ZM13.6227 6.44318L12.4773 5.10682L14.5023 2.74432L15.6477 4.08068L13.6227 6.44318ZM3.49773 18.2557L2.35227 16.9193L4.37727 14.5568L5.52273 15.8932L3.49773 18.2557Z"
        fill="var(--secondary-color)" />
</svg>