<svg width="20" height="19" viewBox="0 0 20 19" fill="none" xmlns="http://www.w3.org/2000/svg">
    <path
        d="M8.59002 10.91C9.00002 11.3 9.00002 11.94 8.59002 12.33C8.20002 12.72 7.56002 12.72 7.17002 12.33C6.23339 11.392 5.70732 10.1206 5.70732 8.79502C5.70732 7.46944 6.23339 6.19804 7.17002 5.26002L10.71 1.72002C11.648 0.783394 12.9194 0.257324 14.245 0.257324C15.5706 0.257324 16.842 0.783394 17.78 1.72002C18.7166 2.65804 19.2427 3.92944 19.2427 5.25502C19.2427 6.58059 18.7166 7.85199 17.78 8.79002L16.29 10.28C16.3 9.46002 16.17 8.64002 15.89 7.86002L16.36 7.38002C16.6404 7.1027 16.8629 6.77254 17.0148 6.40865C17.1667 6.04475 17.2449 5.65434 17.2449 5.26002C17.2449 4.86569 17.1667 4.47528 17.0148 4.11139C16.8629 3.74749 16.6404 3.41733 16.36 3.14002C16.0827 2.85968 15.7525 2.63712 15.3886 2.48524C15.0247 2.33335 14.6343 2.25514 14.24 2.25514C13.8457 2.25514 13.4553 2.33335 13.0914 2.48524C12.7275 2.63712 12.3973 2.85968 12.12 3.14002L8.59002 6.67002C8.30968 6.94733 8.08712 7.27749 7.93524 7.64139C7.78335 8.00528 7.70514 8.39569 7.70514 8.79002C7.70514 9.18434 7.78335 9.57475 7.93524 9.93865C8.08712 10.3025 8.30968 10.6327 8.59002 10.91ZM11.41 6.67002C11.8 6.28002 12.44 6.28002 12.83 6.67002C13.7666 7.60804 14.2927 8.87944 14.2927 10.205C14.2927 11.5306 13.7666 12.802 12.83 13.74L9.29002 17.28C8.35199 18.2166 7.08059 18.7427 5.75502 18.7427C4.42944 18.7427 3.15804 18.2166 2.22002 17.28C1.28339 16.342 0.757324 15.0706 0.757324 13.745C0.757324 12.4194 1.28339 11.148 2.22002 10.21L3.71002 8.72002C3.70002 9.54002 3.83002 10.36 4.11002 11.15L3.64002 11.62C3.35968 11.8973 3.13712 12.2275 2.98524 12.5914C2.83335 12.9553 2.75514 13.3457 2.75514 13.74C2.75514 14.1343 2.83335 14.5247 2.98524 14.8886C3.13712 15.2525 3.35968 15.5827 3.64002 15.86C3.91733 16.1404 4.24749 16.3629 4.61139 16.5148C4.97528 16.6667 5.36569 16.7449 5.76002 16.7449C6.15434 16.7449 6.54475 16.6667 6.90865 16.5148C7.27254 16.3629 7.6027 16.1404 7.88002 15.86L11.41 12.33C11.6904 12.0527 11.9129 11.7225 12.0648 11.3586C12.2167 10.9947 12.2949 10.6043 12.2949 10.21C12.2949 9.81569 12.2167 9.42528 12.0648 9.06139C11.9129 8.69749 11.6904 8.36733 11.41 8.09002C11.3129 7.99901 11.2355 7.88904 11.1826 7.76692C11.1296 7.6448 11.1023 7.51311 11.1023 7.38002C11.1023 7.24692 11.1296 7.11523 11.1826 6.99311C11.2355 6.87099 11.3129 6.76102 11.41 6.67002Z"
        fill="white" />
</svg>