<svg width="199" height="442" viewBox="0 0 199 442" fill="none" xmlns="http://www.w3.org/2000/svg">
<path fill-rule="evenodd" clip-rule="evenodd" d="M48.0355 2.9911C54.2115 4.65337 59.8786 6.17417 60.6293 6.37017C61.4583 6.58669 63.2939 7.70492 65.303 9.21707C82.4022 22.086 86.6089 25.1013 94.0281 29.8078C102.206 34.9951 102.425 35.1622 105.789 38.7825C107.674 40.8114 109.508 42.7643 109.865 43.1223C110.222 43.4803 113.32 46.7519 116.75 50.3927L122.986 57.0126L130.894 70.7531C139.363 85.4698 139.991 86.6852 144.452 97.0036C146.054 100.709 149.198 107.926 151.438 113.043L155.512 122.345L159.228 138.063C161.272 146.708 163.774 158.184 164.787 163.565L166.629 173.349L181.775 194.199C190.105 205.667 197.389 215.704 197.961 216.504L199 217.958L198.915 229.014C198.841 238.608 198.766 240.066 198.347 240.036C198.081 240.018 194.31 237.313 189.966 234.025L182.069 228.048L181.908 235.663C181.756 242.855 181.713 243.278 181.139 243.278C180.678 243.278 178.844 240.373 173.565 231.28C168.576 222.688 166.575 219.5 166.516 220.052C166.471 220.477 165.349 242.982 164.021 270.063C162.693 297.145 160.518 341.46 159.186 368.542C157.855 395.624 156.543 422.617 156.27 428.527C155.685 441.174 155.605 442 154.964 442C154.704 442 154.423 441.82 154.341 441.599C154.258 441.379 151.431 426.547 148.057 408.639L141.924 376.08L138.072 347.691C135.953 332.078 133.293 312.504 132.162 304.195L130.105 289.088L131.658 274.523C132.513 266.513 134.373 249.084 135.792 235.792L138.373 211.625L128.521 200.186C123.103 193.894 118.43 188.603 118.137 188.427C117.844 188.252 116.444 188.018 115.026 187.908C113.608 187.797 111.473 187.533 110.282 187.321C109.09 187.108 107.823 186.981 107.464 187.038C107.044 187.105 109.793 188.789 115.229 191.793C122.818 195.988 123.714 196.571 124.357 197.728C124.75 198.434 126.201 201.157 127.584 203.78L130.097 208.548L129.05 215.167C128.474 218.808 127.839 221.948 127.639 222.147C127.438 222.346 126.114 223.122 124.696 223.872C123.278 224.622 121.284 225.683 120.266 226.23L118.415 227.225L113.518 224.826C109.511 222.863 107.33 221.493 101.51 217.283C97.5978 214.453 94.1928 212.013 93.9427 211.859C93.6926 211.706 93.9378 212.407 94.488 213.418C95.3999 215.093 95.5501 216.173 94.8713 216.173C94.7266 216.173 92.5357 213.971 90.0032 211.281C87.4704 208.59 85.1748 206.365 84.9018 206.337C84.6288 206.308 81.432 204.882 77.7978 203.168C65.1595 197.206 61.8467 195.692 61.7178 195.821C61.6465 195.892 61.769 197.266 61.9898 198.875C62.384 201.746 62.2151 202.745 61.4187 202.255C61.2433 202.147 59.9092 200.413 58.4543 198.402L55.8086 194.744L50.9786 192.708L46.1486 190.671L34.0924 174.215C27.4613 165.165 22.0359 157.638 22.0359 157.489C22.0359 157.234 23.0268 156.713 23.155 156.901C23.1879 156.95 28.5375 164.279 35.0427 173.188L46.8703 189.388L51.3425 191.357L55.8144 193.328L57.3036 189.272C58.1226 187.042 59.4937 183.274 60.3508 180.898L61.9092 176.579L65.2118 174.755C67.0284 173.753 68.6422 172.805 68.7982 172.65C68.9617 172.487 66.9143 171.175 63.9686 169.556C61.1563 168.01 58.6425 166.499 58.3827 166.197C57.6095 165.302 46.2102 147.546 46.2102 147.237C46.2102 147.081 46.4248 146.871 46.6869 146.771C47.2471 146.557 47.2719 146.592 53.9475 156.989C56.666 161.223 59.1025 164.936 59.3613 165.24C59.7768 165.728 69.6875 171.28 70.5646 171.516C70.7522 171.566 71.5925 171.226 72.4318 170.759C73.8668 169.961 73.9312 169.869 73.5113 169.224C71.1277 165.558 61.4905 149.436 59.1991 145.281C57.5937 142.37 54.7978 137.317 52.9864 134.053C51.1746 130.79 46.5244 122.344 42.653 115.286L35.6135 102.452L35.2712 84.4911C35.0829 74.6124 34.9289 65.3689 34.9289 63.9498V61.3701L32.75 58.8067L30.5711 56.2437L29.479 56.9761C28.7019 57.497 27.9203 57.7084 26.7686 57.7084C25.0584 57.7084 23.9257 57.1926 19.7819 54.5272C18.6619 53.8068 17.6233 53.2175 17.4735 53.2175C17.3236 53.2175 17.2011 54.6523 17.2011 56.4063C17.2011 58.553 17.0738 59.6735 16.8114 59.8348C16.4469 60.059 7.79121 51.4593 2.13895 45.2568L0 42.9093L1.09882 32.7464C1.70285 27.1566 2.27336 20.3163 2.36651 17.5457C2.45934 14.7752 2.68045 12.378 2.85773 12.2189C3.035 12.0595 5.25806 10.3087 7.79764 8.32819L12.4156 4.72715L18.5955 3.44981C21.9947 2.7473 27.0964 1.69098 29.9329 1.10236C32.7693 0.513731 35.4765 0.0178081 35.9484 0.000165377C36.4206 -0.0171566 41.8598 1.3285 48.0355 2.9911ZM26.3873 3.17715C21.4235 4.20781 16.5387 5.24263 15.5321 5.4768L13.702 5.9028L16.2622 12.6391C21.8045 27.2214 22.7644 29.6442 23.0397 29.7472C23.1966 29.8062 23.3252 30.1318 23.3252 30.4715C23.3252 30.8109 25.245 34.8767 27.5912 39.5065L31.8571 47.9247L32.0231 50.8078L32.1891 53.6907L33.3466 51.7702C33.9832 50.7135 40.3291 40.5012 47.4482 29.0758C59.0892 10.3937 60.7212 7.66707 60.2625 7.66707C60.1913 7.66707 54.7882 6.22453 48.256 4.46122C41.7238 2.6979 36.1618 1.26627 35.8958 1.27911C35.6299 1.29226 31.3511 2.14617 26.3873 3.17715ZM7.88499 9.99271L3.65193 13.2807L3.73831 17.9169L3.82469 22.5531L11.7216 25.528C21.8548 29.3449 20.8778 29.0508 20.6587 28.2177C20.2358 26.6084 12.5364 6.70474 12.3366 6.70474C12.2164 6.70474 10.2131 8.18417 7.88499 9.99271ZM47.1987 32.0715C38.6137 45.8563 32.7261 55.6176 32.924 55.7385C33.1097 55.8517 39.5926 57.5153 47.3312 59.4355C58.6415 62.2423 61.5395 62.8601 62.1055 62.5868C62.493 62.3994 64.4778 61.9414 66.5165 61.5683C75.2931 59.9631 116.292 52.2247 116.348 52.1628C116.382 52.1253 113.014 48.4876 108.864 44.0792L101.317 36.0636L92.5264 30.4461C86.6276 26.6767 80.2662 22.2131 73.1893 16.8782C67.3887 12.5054 62.4556 8.85619 62.2267 8.76894C61.955 8.66501 56.7392 16.7531 47.1987 32.0715ZM41.57 11.969C41.6661 12.2179 40.6101 14.4916 39.2232 17.0213L36.7016 21.6209L29.6911 21.7075C22.8627 21.7916 22.6806 21.7771 22.6806 21.1513C22.6806 20.5104 27.6492 12.2096 28.3006 11.7618C28.4892 11.6322 31.5129 11.5241 35.0194 11.5212C40.215 11.5174 41.4279 11.6001 41.57 11.969ZM27.7317 14.9648C25.9399 17.7546 24.6145 20.0164 24.6145 20.2858C24.6145 20.4026 27.1409 20.4982 30.2284 20.4982H35.8423L37.803 16.8336C38.8815 14.8182 39.7637 13.086 39.7637 12.9843C39.7637 12.8826 37.3695 12.7995 34.4431 12.7995H29.1229L27.7317 14.9648ZM3.21453 25.1148C3.11236 25.8394 2.65594 30.0272 2.20082 34.4209L1.37278 42.4092L2.59857 43.7167C3.27287 44.4359 5.29707 46.5431 7.0966 48.3991C8.89613 50.2554 11.6104 53.0732 13.1289 54.661L15.8892 57.548L15.9005 49.739L15.9118 41.93L18.824 36.3725C20.444 33.2808 21.5969 30.7294 21.4226 30.6219C21.2501 30.5157 19.7581 29.9377 18.1075 29.3372C16.4565 28.7367 12.4723 27.2445 9.25325 26.0213L3.40052 23.7971L3.21453 25.1148ZM21.6108 34.051C21.1847 34.801 20.0143 36.9685 19.0097 38.8678L17.1834 42.3213L17.273 46.8513L17.3623 51.3814L21.3797 53.9033C24.7857 56.0413 25.6079 56.4253 26.7834 56.4253C27.9122 56.4253 28.3931 56.2216 29.3736 55.3273C30.5546 54.2501 30.5798 54.1779 30.6874 51.5581L30.7976 48.887L26.7438 40.7874C24.5143 36.3327 22.6213 32.6877 22.5378 32.6877C22.454 32.6877 22.0369 33.3011 21.6108 34.051ZM109.547 54.8291C106.001 55.5111 94.6305 57.6612 84.2791 59.6074C73.9274 61.5535 65.399 63.2046 65.3272 63.2758C65.2556 63.3473 77.061 68.1199 91.562 73.8817L117.927 84.358L120.022 86.5251C124.184 90.83 132.729 99.7886 133.318 100.464C133.649 100.844 135.18 102.462 136.721 104.059C139.935 107.392 148.294 116.18 151.294 119.38C152.411 120.572 153.378 121.494 153.443 121.429C153.508 121.365 152.743 119.451 151.743 117.177C149.687 112.504 143.51 98.3105 140.59 91.5504C139.322 88.615 135.744 81.9913 130.259 72.4257C122.896 59.5862 121.61 57.5307 119.772 55.665C118.206 54.0749 117.464 53.5447 116.835 53.5636C116.372 53.5777 113.092 54.1471 109.547 54.8291ZM33.6396 57.5365C33.6396 57.6558 34.2059 58.4292 34.8976 59.2549L36.156 60.7558L36.3503 71.983C36.4573 78.158 36.6333 86.7253 36.741 91.0215L36.9373 98.8327L38.3026 97.2766C39.0536 96.4208 42.0406 92.9057 44.9402 89.4654C47.8398 86.025 51.125 82.1417 52.2402 80.8355L54.2683 78.4611L54.2689 73.618L54.2696 68.7752L57.1566 66.5298C58.7444 65.2948 60.0494 64.2102 60.0565 64.1198C60.0639 64.0293 54.3044 62.5274 47.2577 60.7824C40.2111 59.037 34.2642 57.5438 34.0425 57.4643C33.821 57.3844 33.6396 57.4168 33.6396 57.5365ZM59.0225 66.7354L55.5575 69.6259V74.1787V78.7312L58.7337 86.4241C63.7126 98.4828 64.3747 99.6433 69.8007 105.825C77.4098 114.494 89.9462 128.815 93.8943 133.348C95.9221 135.677 97.6945 137.582 97.8331 137.582C97.9714 137.582 103.677 139.479 110.512 141.797C117.348 144.116 122.986 145.956 123.043 145.887C124.489 144.127 128.402 138.67 128.401 138.414C128.396 137.555 117.113 85.7999 116.88 85.5683C116.667 85.3569 62.6735 63.7547 62.5304 63.824C62.5068 63.8352 60.9284 65.1456 59.0225 66.7354ZM51.339 84.0657C49.6706 86.0356 46.6373 89.6097 44.5986 92.0075C37.5029 100.354 36.8628 101.144 36.8628 101.554C36.8628 101.97 46.6118 119.884 55.0734 135.016C57.5891 139.515 60.6003 144.928 61.7648 147.045C62.9297 149.162 66.3599 154.936 69.3878 159.876C72.4154 164.816 74.9385 168.992 74.9946 169.156C75.0526 169.325 76.6207 169.16 78.623 168.774C80.5624 168.4 87.2258 167.126 93.4305 165.942C99.6352 164.758 104.836 163.68 104.987 163.547C105.4 163.185 96.7301 154.931 94.4458 153.512C92.5967 152.362 91.912 151.526 84.2443 141.049C79.7237 134.872 75.8591 129.508 75.6557 129.129C75.4526 128.75 72.6755 122.161 69.4838 114.486C66.2925 106.811 62.9668 99.1506 62.0936 97.4617C61.2204 95.7731 59.2275 91.2621 57.6649 87.4374C56.1023 83.6128 54.7221 80.4836 54.5983 80.4836C54.4742 80.4836 53.0076 82.0955 51.339 84.0657ZM119.056 87.8881C119.056 88.1383 121.451 99.4576 124.377 113.043L129.699 137.742L142.185 156.416L154.672 175.089L156.928 175.902C162.815 178.023 164.516 178.56 164.653 178.338C164.735 178.207 164.894 176.958 165.006 175.563C165.184 173.349 165.003 171.916 163.567 164.238C162.664 159.403 160.311 148.577 158.339 140.179L154.753 124.911L151.799 121.864C150.174 120.188 147.545 117.447 145.957 115.774C144.368 114.101 141.822 111.43 140.299 109.84C136.834 106.221 119.302 87.7486 119.16 87.5673C119.102 87.4939 119.056 87.6382 119.056 87.8881ZM67.2527 105.584C67.341 105.805 69.5428 111.089 72.1456 117.327L76.8776 128.667L85.1304 139.941L93.3831 151.215L102.157 156.92C109.97 162.001 111.137 162.659 112.817 162.933C113.855 163.102 114.8 163.241 114.918 163.242C115.035 163.243 115.525 162.198 116.007 160.919C116.488 159.64 117.07 158.393 117.299 158.148C117.649 157.775 119.511 158.878 128.936 165.045C135.108 169.083 144.492 175.309 149.79 178.882L159.423 185.378H162.323H165.223L164.991 182.892C164.863 181.524 164.703 180.315 164.636 180.204C164.568 180.092 162.093 179.155 159.136 178.12L153.76 176.237L141.673 158.193C135.025 148.268 129.468 140.148 129.324 140.148C129.179 140.148 127.887 141.7 126.453 143.597C125.018 145.493 123.658 147.149 123.43 147.276C123.201 147.403 117.836 145.737 111.446 143.555C105.083 141.382 99.1317 139.359 98.2212 139.06C96.6895 138.558 96.1947 138.09 91.6319 132.837C88.9186 129.713 86.1102 126.503 85.3908 125.704C84.6717 124.905 83.2709 123.317 82.2785 122.175C81.2857 121.034 79.3276 118.79 77.9271 117.19C76.5263 115.59 73.5925 112.234 71.4071 109.732C67.6337 105.413 66.8846 104.665 67.2527 105.584ZM104.349 160.292C105.409 161.42 115.699 171.549 120.506 176.196C123.248 178.848 126.555 181.257 142.688 192.358L161.648 205.403L168.817 212.793C172.76 216.857 177.21 221.459 178.705 223.019C180.494 224.885 184.072 227.855 189.16 231.695C193.415 234.906 197.078 237.644 197.299 237.779C197.614 237.97 197.7 237.088 197.693 233.754L197.685 229.485L196.362 228.041C193.565 224.988 189.738 220.794 188.193 219.089C187.307 218.11 185.639 216.291 184.487 215.046C181.063 211.346 176.916 206.804 170.289 199.492C166.852 195.699 163.889 192.439 163.707 192.247C163.524 192.055 162.178 190.594 160.716 189C158.285 186.352 157.094 185.455 146.856 178.566C135.201 170.723 119.068 160.145 118.338 159.865C118.053 159.757 117.622 160.491 117.015 162.116C115.995 164.846 116.099 164.8 112.339 164.193C110.621 163.915 109.751 163.501 106.859 161.584C104.467 159.998 103.704 159.605 104.349 160.292ZM97.6207 166.432C93.366 167.275 87.0201 168.516 83.5191 169.189C80.018 169.863 77.1587 170.497 77.1651 170.598C77.1719 170.699 80.7616 172.826 85.1426 175.324L93.1082 179.865L103.395 183.263C112.895 186.401 113.872 186.661 116.168 186.661C117.955 186.661 118.764 186.793 119.045 187.13C119.26 187.388 119.749 187.696 120.132 187.816C120.515 187.936 123.294 189.078 126.307 190.354C129.321 191.63 135.123 194.078 139.2 195.795C143.278 197.512 148.266 199.627 150.285 200.496C152.304 201.365 153.995 202.036 154.043 201.987C154.091 201.938 147.094 197.062 138.493 191.152L122.856 180.406L114.951 172.707C109.013 166.923 106.837 164.995 106.202 164.954C105.737 164.924 101.875 165.589 97.6207 166.432ZM68.8585 174.249L62.9816 177.519L62.3621 179.283C62.0217 180.253 60.7137 183.888 59.456 187.36C58.1983 190.832 57.1692 193.824 57.1692 194.009C57.1692 194.357 60.424 198.936 60.5597 198.778C60.6016 198.73 60.4259 197.365 60.169 195.745C59.7049 192.817 59.7071 192.785 60.5484 190.452C61.0138 189.161 62.2934 186.11 63.3916 183.672L65.3884 179.239L71.1902 176.342C74.3812 174.749 77.1841 173.263 77.4191 173.04C77.7691 172.709 77.5835 172.483 76.3948 171.789C75.5964 171.324 74.8966 170.951 74.8396 170.961C74.7825 170.971 72.0911 172.45 68.8585 174.249ZM72.6974 177.085L66.4692 180.32L64.8849 183.687C64.0137 185.54 63.4 187.219 63.5212 187.419C63.9698 188.162 67.9145 192.755 68.0163 192.653C68.0743 192.596 67.7836 190.787 67.37 188.634C66.816 185.75 66.7109 184.602 66.9704 184.27C67.1641 184.022 70.7309 182.207 74.8969 180.235C79.063 178.263 82.7432 176.506 83.0752 176.33C83.6035 176.051 83.442 175.875 81.7859 174.93C80.7448 174.335 79.6754 173.85 79.4094 173.85C79.1435 173.851 76.1231 175.307 72.6974 177.085ZM166.31 176.262C166.042 176.956 166.093 180.89 166.404 183.614C166.546 184.849 166.598 186.034 166.519 186.248C166.426 186.504 165.388 186.669 163.496 186.73L160.616 186.821L163.088 189.548C164.447 191.048 166.161 192.924 166.897 193.718C167.633 194.512 172.639 199.997 178.022 205.908C183.405 211.818 189.067 218.025 190.604 219.701C192.14 221.377 194.33 223.769 195.469 225.017L197.541 227.285L197.63 222.867L197.719 218.449L187.505 204.399C181.888 196.672 174.907 187.066 171.994 183.052C169.08 179.038 166.653 175.755 166.601 175.755C166.549 175.755 166.418 175.983 166.31 176.262ZM84.067 177.303C83.8988 177.448 80.2797 179.209 76.0251 181.216C71.7704 183.223 68.2377 184.899 68.1746 184.942C68.1114 184.984 68.4972 187.359 69.0319 190.219C69.5667 193.079 69.9303 195.611 69.8397 195.846C69.5512 196.595 68.6271 195.799 65.6811 192.266C64.1307 190.407 62.7579 188.999 62.63 189.137C62.0856 189.724 60.9561 193.445 61.2372 193.725C61.4009 193.888 65.0854 195.698 69.4249 197.748C77.4201 201.525 78.7648 202.128 78.7648 201.936C78.7648 201.877 77.4594 200.697 75.8639 199.314C74.2684 197.931 72.963 196.574 72.963 196.299C72.963 196.024 73.7288 193.815 74.6652 191.392L76.3674 186.984L81.6177 182.464C86.4403 178.311 86.8203 177.907 86.2814 177.501C85.6206 177.002 84.5276 176.904 84.067 177.303ZM82.926 183.135L77.6367 187.629L75.9719 191.804L74.3071 195.979L76.0818 197.655C77.0581 198.577 77.9812 199.377 78.133 199.433C78.2849 199.489 78.1266 198.551 77.7811 197.349C77.4359 196.147 77.1532 194.839 77.1532 194.441C77.1532 194.043 77.9264 192.485 78.8715 190.978L80.5898 188.237L85.1194 185.444C88.9618 183.075 91.7496 180.815 91.2948 180.439C91.2284 180.384 90.5083 179.957 89.6948 179.49L88.2153 178.641L82.926 183.135ZM91.4998 182.519C90.9699 183.232 89.8079 184.23 88.9183 184.736L87.3002 185.658L85.5977 191.051L83.8956 196.445L85.1745 200.853C86.5595 205.628 86.8815 206.217 89.4276 208.634L91.1165 210.238L90.3091 208.795C87.7528 204.226 87.9645 205.22 88.3633 199.656L88.7207 194.666L91.5591 189.672L94.3975 184.678L97.6207 184.877C99.3935 184.987 101.787 185.146 102.939 185.23C104.955 185.377 104.802 185.304 98.9165 183.295C95.5517 182.147 92.7233 181.211 92.6311 181.215C92.539 181.22 92.03 181.806 91.4998 182.519ZM92.6624 190.523L90.0461 195.069L89.6896 199.675L89.3331 204.281L90.4999 206.358C91.6258 208.361 91.9701 208.655 100.261 214.706C104.988 218.155 108.906 220.926 108.968 220.865C109.03 220.803 108.203 217.851 107.131 214.304L105.18 207.855L107.964 202.31C109.495 199.261 110.815 196.693 110.898 196.605C110.981 196.517 113.123 196.373 115.659 196.284L120.27 196.124L111.867 191.473C107.245 188.914 102.946 186.731 102.315 186.62C101.683 186.509 99.8415 186.319 98.2225 186.198L95.2787 185.977L92.6624 190.523ZM83.2773 188.157C81.8855 189.047 81.1681 189.839 79.9381 191.843L78.3719 194.395L79.3982 198.107C80.1608 200.865 80.3307 201.911 80.0599 202.179C79.7895 202.446 80.3429 202.846 82.203 203.724C83.5822 204.376 84.749 204.871 84.7961 204.824C84.8432 204.777 84.3755 202.99 83.7569 200.852C83.1387 198.714 82.6327 196.699 82.6327 196.373C82.6327 196.048 83.2677 193.802 84.0438 191.382C84.8196 188.962 85.3637 186.991 85.2525 187.002C85.141 187.014 84.2524 187.533 83.2773 188.157ZM121.845 190.271C121.982 190.491 126.051 195.259 130.889 200.866C135.726 206.474 139.683 211.237 139.682 211.452C139.68 211.831 138.725 220.862 135.028 255.468C134.047 264.642 133.026 274.313 132.758 276.96C132.49 279.606 132.195 282.277 132.103 282.894C131.818 284.797 132.374 283.471 135.598 274.554C137.289 269.879 142.543 255.372 147.274 242.316C152.005 229.26 156.868 215.837 158.08 212.486C159.293 209.135 160.182 206.298 160.057 206.182C159.932 206.066 155.985 204.354 151.287 202.378C146.59 200.403 141.803 198.379 140.651 197.881C137.564 196.548 123.206 190.492 122.341 190.158C121.777 189.94 121.657 189.968 121.845 190.271ZM109.331 202.816L106.7 208.064L108.768 215.043L110.836 222.022L114.565 223.882L118.294 225.743L122.426 223.533C124.698 222.318 126.601 221.28 126.654 221.227C126.707 221.174 127.191 218.354 127.73 214.96L128.71 208.788L126.7 205.022C125.595 202.951 124.257 200.427 123.727 199.413L122.762 197.569L117.362 197.568L111.962 197.567L109.331 202.816ZM161.28 207.605C161.28 207.656 160.545 209.713 159.647 212.176C157.984 216.74 150.028 238.697 138.417 270.77C134.859 280.598 131.948 288.829 131.948 289.061C131.948 289.48 132.955 291.74 146.925 322.671C150.95 331.58 155.201 341 156.373 343.603C157.546 346.206 158.601 348.227 158.718 348.094C158.836 347.961 159.099 344.171 159.304 339.672C159.508 335.173 160.615 312.438 161.763 289.149C162.912 265.861 164.173 240.117 164.566 231.941C164.982 223.294 165.422 216.889 165.617 216.63C165.802 216.385 166.11 216.29 166.303 216.419C166.495 216.548 169.665 221.85 173.347 228.202C177.029 234.553 180.172 239.887 180.331 240.054C180.501 240.234 180.614 237.602 180.607 233.639L180.594 226.919L176.077 222.267C173.593 219.709 169.365 215.343 166.683 212.564C162.509 208.241 161.28 207.112 161.28 207.605ZM132.793 298.853C133.188 301.808 135.629 319.888 138.215 339.03L142.919 373.835L148.619 404.217C151.754 420.927 154.388 434.53 154.472 434.447C154.556 434.363 155.54 415.783 156.658 393.158L158.69 352.022L155.433 344.804C152.22 337.683 144.086 319.693 136.87 303.745C134.835 299.246 132.965 295.096 132.715 294.522C132.466 293.949 132.219 293.48 132.167 293.48C132.115 293.48 132.397 295.898 132.793 298.853Z" fill="black"/>
</svg>
