<svg width="18" height="21" viewBox="0 0 18 21" fill="none" xmlns="http://www.w3.org/2000/svg">
    <path
        d="M9 21C6.5 21 4.375 19.9792 2.625 17.9375C0.875 15.8958 0 13.4167 0 10.5C0 7.58333 0.875 5.10417 2.625 3.0625C4.375 1.02083 6.5 0 9 0C9.23333 0 9.46267 0.00972233 9.688 0.0291668C9.91267 0.0486112 10.1333 0.0777777 10.35 0.116667C9.66667 0.680555 9.121 1.41439 8.713 2.31817C8.30433 3.22272 8.1 4.2 8.1 5.25C8.1 7 8.625 8.4875 9.675 9.7125C10.725 10.9375 12 11.55 13.5 11.55C14.4167 11.55 15.2583 11.3116 16.025 10.8348C16.7917 10.3588 17.4167 9.72222 17.9 8.925C17.9333 9.17778 17.9583 9.43522 17.975 9.69733C17.9917 9.96022 18 10.2278 18 10.5C18 13.4167 17.125 15.8958 15.375 17.9375C13.625 19.9792 11.5 21 9 21Z"
        fill="var(--secondary-color)" />
</svg>