<svg width="100" height="150" viewBox="0 0 117 180" fill="none" xmlns="http://www.w3.org/2000/svg">
    <path fillRule="evenodd" clipRule="evenodd"
        d="M44.9445 0.904855L44.0473 1.80971V11.6961V21.5824L46.2105 28.5377C47.4003 32.3631 48.3738 35.5513 48.3738 35.6226C48.3738 35.6938 46.8098 39.7249 44.8983 44.5806C39.5796 58.0912 39.1246 59.2774 39.1929 59.4554C39.2278 59.5464 40.6887 60.4936 42.4393 61.5604C44.1899 62.6271 45.6247 63.5474 45.6279 63.6055C45.6311 63.6636 44.7767 64.7664 43.7293 66.0561C42.6818 67.3459 40.7225 69.7633 39.3754 71.4283C38.0281 73.0933 35.66 76.0124 34.1129 77.9152C30.6757 82.1425 29.8801 83.1228 25.5132 88.5105C23.6174 90.8494 21.1063 93.9469 19.9331 95.3939C18.7598 96.8409 16.8304 99.2216 15.6457 100.684L13.4917 103.344L6.9152 118.136L0.338745 132.927L3.1445 140.883C4.68777 145.259 6.96669 151.726 8.20883 155.254C9.45098 158.782 10.511 161.712 10.5642 161.765C10.6174 161.817 14.3926 162.867 18.9535 164.098C23.5143 165.328 32.5676 167.77 39.0718 169.525C45.576 171.28 52.7796 173.225 55.0799 173.848C57.3802 174.471 60.9496 175.436 63.0119 175.992C65.0742 176.548 68.6983 177.527 71.0657 178.167L75.3699 179.331L76.3296 178.574C76.8574 178.157 78.5873 176.775 80.1737 175.502C81.7601 174.229 85.5242 171.209 88.5383 168.791C96.9018 162.082 107.507 153.573 112.478 149.583C115.023 147.542 116.969 145.878 116.995 145.723C117.021 145.573 116.941 145.412 116.819 145.365C116.697 145.318 114.08 145.613 111.004 146.02C94.4357 148.212 87.8447 149.059 87.7867 149.001C87.7512 148.965 88.0878 147.13 88.5346 144.923C89.7162 139.088 96.0919 107.502 96.3281 106.314C96.535 105.273 101.484 80.7528 103.671 69.9287C104.351 66.5668 104.907 63.8005 104.907 63.7814C104.907 63.7623 106.467 62.7868 108.373 61.6139C110.28 60.4407 111.811 59.4122 111.776 59.328C111.741 59.244 109.627 53.8728 107.079 47.3921L102.447 35.6089L104.272 29.7332C105.276 26.5016 106.25 23.371 106.437 22.7763L106.778 21.6952L106.78 11.672L106.782 1.64869L105.922 0.798613C105.15 0.0344529 105.029 -0.0360385 104.726 0.102061C104.343 0.276199 88.9071 9.20106 88.6788 9.37996C88.5975 9.44367 87.1048 11.736 85.3618 14.4739L82.1928 19.4521L75.4146 19.4537L68.6363 19.4555L65.4574 14.4637L62.2784 9.47193L54.0951 4.73589C49.5942 2.13117 45.896 0 45.8767 0C45.8574 0 45.438 0.407235 44.9445 0.904855ZM50.3207 3.53148C52.4624 4.77525 55.8046 6.70561 57.7479 7.82093C59.6913 8.93625 61.3963 9.9472 61.5371 10.0673C61.7817 10.2763 67.5547 19.2241 67.5547 19.3943C67.5547 19.4396 67.2519 19.4568 66.8817 19.4327L66.2086 19.3887L63.848 15.6407C62.5496 13.5793 61.376 11.7823 61.24 11.6474C60.9387 11.3482 46.2511 2.45062 46.0587 2.45062C45.9835 2.45062 45.9176 2.62894 45.9122 2.84704C45.9068 3.06515 45.6878 5.31928 45.4257 7.85639L44.9491 12.4693L44.9308 7.28583L44.9126 2.10234L45.4398 1.56263C45.8285 1.16491 46.0275 1.0555 46.197 1.14646C46.3235 1.21435 48.1791 2.28758 50.3207 3.53148ZM105.441 1.46979L105.917 1.93051L105.902 6.98368L105.887 12.0369L105.395 7.21779C105.125 4.56737 104.88 2.37537 104.851 2.34668C104.822 2.31785 102.406 3.74671 99.4808 5.52167C96.556 7.29664 93.1315 9.37232 91.8711 10.134L89.5794 11.5192L87.0967 15.4539L84.6142 19.3887L83.9443 19.4327C83.5758 19.4568 83.2744 19.4371 83.2744 19.3889C83.2744 19.3407 84.6035 17.2202 86.228 14.6768L89.1816 10.0524L94.7729 6.81344C97.848 5.03198 101.338 3.00172 102.527 2.30185C103.717 1.60198 104.753 1.02479 104.828 1.01917C104.904 1.01369 105.179 1.21637 105.441 1.46979ZM102.417 6.08186C101.903 7.05792 101.077 8.63482 100.581 9.58624C100.085 10.5377 99.5013 11.6404 99.2838 12.0369C99.0665 12.4333 98.4172 13.6658 97.8409 14.7758C97.2648 15.8858 96.4716 17.3939 96.0786 18.1274L95.3637 19.4608H90.4706H85.5774L86.1461 18.5598C86.4589 18.0644 87.4874 16.4263 88.4318 14.9199L90.1488 12.181L96.6987 8.20078C100.301 6.01151 103.272 4.24 103.3 4.26393C103.328 4.28786 102.931 5.10593 102.417 6.08186ZM52.814 7.44368C55.6467 9.15911 58.5808 10.9397 59.3343 11.4004L60.7044 12.2381L62.3629 14.8719C63.2751 16.3205 64.297 17.9456 64.6337 18.4833L65.2459 19.4608H60.3632H55.4804L53.4554 15.6047C52.3418 13.4837 50.7358 10.4187 49.8868 8.79339C49.0376 7.16806 48.1546 5.49774 47.9244 5.08143C47.6944 4.66511 47.5415 4.32462 47.5849 4.32462C47.6283 4.32462 49.9814 5.72825 52.814 7.44368ZM104.413 26.4293C103.571 29.1376 102.671 32.027 102.412 32.8501L101.942 34.3467L99.0767 27.0467L96.212 19.7468L96.9751 18.2704C97.3947 17.4583 98.2706 15.7885 98.9215 14.5596C99.5724 13.3306 101.039 10.5414 102.18 8.36136L104.256 4.39742L105.1 12.9512L105.944 21.5052L104.413 26.4293ZM48.8021 8.57716C49.3835 9.68715 50.3911 11.6008 51.0414 12.8297C53.604 17.6733 54.5751 19.5767 54.5751 19.7559C54.5751 19.9451 53.7336 22.1364 50.7708 29.6621C49.8739 31.9402 49.0909 33.9338 49.0306 34.0924C48.9373 34.3378 48.894 34.2948 48.7404 33.8041C48.6412 33.487 47.8653 30.9895 47.0161 28.2542C46.167 25.5189 45.3488 22.903 45.1983 22.4413L44.9243 21.6019L45.5679 15.0895C45.922 11.5077 46.279 7.83116 46.3615 6.91939C46.5934 4.35619 46.5717 4.39136 47.2036 5.55887C47.5014 6.10896 48.2206 7.46718 48.8021 8.57716ZM70.3995 25.2666C71.6072 27.9801 73.1447 31.4178 73.8162 32.9059L75.0371 35.6114L72.8515 40.2455L70.6658 44.8795L69.0997 43.2339C68.2383 42.3289 67.1469 41.1588 66.6743 40.6338L65.8149 39.6792L63.2162 40.3292L60.6176 40.9794L59.8678 40.6099C59.4555 40.4068 56.9321 39.1694 54.2606 37.86L49.4032 35.4795L50.1726 33.4886C50.8461 31.7457 51.5408 29.9777 54.6788 22.0195L55.3467 20.3257L61.7752 20.3293L68.2037 20.3331L70.3995 25.2666ZM81.688 20.3852C81.688 20.44 79.2373 26.0668 77.1935 30.7048C76.7218 31.7751 76.1703 33.0564 75.9681 33.5518C75.7657 34.0474 75.5585 34.4506 75.5074 34.4479C75.4564 34.4452 74.9462 33.391 74.3737 32.1054C72.7337 28.4224 70.6221 23.7125 69.8489 22.0133C69.4597 21.1576 69.1411 20.4278 69.1411 20.3916C69.1411 20.3554 71.9642 20.3257 75.4146 20.3257C78.865 20.3257 81.688 20.3525 81.688 20.3852ZM95.844 21.1186C96.1793 21.9905 98.7518 28.5377 100.311 32.4877C101.354 35.1283 101.485 35.606 101.17 35.606C101.107 35.606 98.6007 36.8112 95.5995 38.2841L90.1431 40.9622L87.5807 40.3213C85.1602 39.7157 85.0043 39.694 84.7594 39.926C84.6169 40.0611 83.9166 40.8148 83.2033 41.6008C81.184 43.8261 80.2719 44.7618 80.1965 44.6857C80.1585 44.6472 79.1919 42.6008 78.0487 40.1384L75.9701 35.661L77.0041 33.2911C77.5728 31.9875 78.8866 28.975 79.9238 26.5964C80.9612 24.2179 82.007 21.8333 82.2483 21.2973L82.6869 20.3227L89.1268 20.3603L95.5668 20.3978L95.844 21.1186ZM105.699 46.2014C107.815 51.5927 109.709 56.4138 109.909 56.9149C110.108 57.416 110.245 57.8514 110.214 57.8826C110.183 57.9137 107.435 56.0665 104.107 53.7777L98.0567 49.6161L92.7029 54.9532L87.3491 60.2904L86.9902 59.5166C83.3144 51.5926 80.675 45.7801 80.7085 45.6825C80.7845 45.4608 85.202 40.6514 85.3296 40.6514C85.3981 40.6514 86.4685 40.9109 87.7084 41.228C88.9483 41.5452 90.0471 41.8047 90.1504 41.8047C90.3086 41.8047 100.216 37.0247 101.302 36.4245C101.5 36.3148 101.705 36.2642 101.757 36.3121C101.81 36.3598 103.584 40.81 105.699 46.2014ZM54.9324 39.1319L60.5084 41.8649L62.986 41.2465L65.4636 40.6282L67.1658 42.4056C68.102 43.3833 69.1782 44.54 69.5573 44.976L70.2465 45.7689L68.0393 50.4539C66.8253 53.0306 65.4767 55.8849 65.0426 56.7967C64.6084 57.7084 64.0631 58.8589 63.831 59.3534L63.4089 60.2523L58.1428 54.9927C55.2465 52.1 52.7981 49.7331 52.7019 49.7331C52.6057 49.7331 49.8617 51.5816 46.604 53.8408C43.3462 56.1 40.6603 57.9281 40.6354 57.9032C40.592 57.8597 48.8764 36.7077 49.0414 36.4408C49.1441 36.2748 48.5437 36.0006 54.9324 39.1319ZM79.8122 45.9851C80.6683 47.8483 81.5947 49.8593 81.8709 50.4539C82.1472 51.0485 83.3573 53.6671 84.5601 56.273L86.747 61.0109L86.0027 63.5527C85.5933 64.9507 85.2174 66.1713 85.1674 66.2651C85.018 66.5452 80.2463 70.0761 80.1214 69.999C80.0581 69.9598 79.9257 69.5681 79.8273 69.1285L79.6484 68.329H77.7838H75.9193L75.9223 52.9406L75.9254 37.5521L77.0905 40.0748C77.7314 41.4623 78.9563 44.1219 79.8122 45.9851ZM75.054 53.0487V68.329H73.1258H71.1976L71.0252 69.2057C70.9049 69.8167 70.796 70.0607 70.6661 70.0108C70.4124 69.9135 65.7077 66.4724 65.6081 66.3113C65.4875 66.1164 64.0732 61.3855 64.0587 61.1291C64.0463 60.9107 65.707 57.3116 69.3498 49.661C69.8406 48.6303 71.3028 45.5329 72.5992 42.7777C73.8954 40.0225 74.978 37.7683 75.005 37.7683C75.032 37.7683 75.054 44.6445 75.054 53.0487ZM57.9133 56.0399L63.197 61.3375L64.0316 64.1182L64.8661 66.8988L67.6887 68.9552C70.7455 71.1822 70.599 71.0007 70.384 72.2932L70.2881 72.8698L72.4526 74.5897C73.6431 75.5357 74.5992 76.3277 74.5771 76.3497C74.555 76.3718 73.6216 76.7124 72.503 77.1065L70.4689 77.8233L55.4914 68.6071C47.2538 63.5382 40.514 59.3247 40.514 59.244C40.514 59.1209 52.3386 50.7833 52.5568 50.7524C52.5969 50.7468 55.0074 53.1262 57.9133 56.0399ZM104.391 54.9947C107.761 57.294 110.52 59.2076 110.521 59.2473C110.522 59.2869 109.503 59.9425 108.256 60.7041C107.009 61.4657 101.446 64.8967 95.8934 68.3284C90.3411 71.7601 84.6484 75.2765 83.2428 76.1424L80.6876 77.717L78.5918 77.0542C77.4392 76.6896 76.4988 76.345 76.5021 76.2883C76.5054 76.2317 77.353 75.5042 78.3857 74.6718C80.8944 72.6494 80.7399 72.8544 80.486 71.8824L80.2766 71.0805L83.0659 68.9883L85.8553 66.8961L86.3063 65.4142C86.5545 64.5991 86.9445 63.3191 87.1732 62.5696L87.5888 61.2069L92.8222 55.9744C95.7006 53.0965 98.1023 50.7582 98.1594 50.7781C98.2165 50.798 101.021 52.6955 104.391 54.9947ZM61.075 73.0395L75.054 81.642V116.006C75.054 141.23 75.0113 150.343 74.8933 150.27C74.749 150.181 62.523 140.738 61.3938 139.844C61.1383 139.641 60.8969 139.312 60.8574 139.112C60.818 138.912 59.9429 134.207 58.9128 128.657C57.8826 123.107 56.418 115.226 55.6579 111.143C54.8979 107.06 52.6559 94.9939 50.6757 84.3301C48.6956 73.6663 47.049 64.8278 47.017 64.6891C46.9848 64.5504 46.9895 64.4368 47.0272 64.4368C47.065 64.4368 53.3865 68.3081 61.075 73.0395ZM102.807 69.9275C102.206 72.8936 100.911 79.3099 99.9286 84.1859C98.9462 89.0619 96.773 99.8302 95.0992 108.115C93.4254 116.401 91.2528 127.169 90.2714 132.045C87.7167 144.737 86.8856 148.809 86.8408 148.854C86.819 148.876 84.5313 149.256 81.757 149.699C78.9825 150.141 76.5341 150.54 76.3159 150.584L75.9193 150.664L75.9202 116.163L75.9211 81.6632L79.4174 79.5044C81.3404 78.317 87.6151 74.4424 93.3608 70.8944C99.1067 67.3463 103.828 64.4638 103.853 64.4889C103.878 64.514 103.408 66.9613 102.807 69.9275ZM46.8944 68.6536C48.6095 77.891 57.8376 127.499 58.8323 132.828C59.4232 135.994 59.8914 138.599 59.8728 138.616C59.8542 138.633 53.6413 133.848 46.0663 127.982C31.3113 116.556 22.257 109.55 17.5113 105.888C15.8852 104.633 14.5296 103.584 14.4986 103.558C14.4389 103.507 14.8875 102.948 23.5693 92.2585C29.5077 84.9463 31.1395 82.9342 34.2663 79.0685C35.3565 77.7206 37.487 75.0934 39.0008 73.2302C40.5145 71.367 42.7074 68.6595 43.8736 67.2135C45.0399 65.7674 46.0267 64.5837 46.0663 64.5829C46.106 64.5821 46.4786 66.4139 46.8944 68.6536ZM79.3302 70.6355C79.5093 71.3887 79.6543 72.1347 79.6524 72.2932C79.6501 72.4878 78.9769 73.1293 77.5827 74.2657L75.5164 75.9497L73.3743 74.2227C71.6681 72.8469 71.2398 72.431 71.2689 72.1782C71.2891 72.0036 71.4407 71.2596 71.6058 70.5249L71.906 69.1889L75.4554 69.2275L79.0046 69.266L79.3302 70.6355ZM77.6949 77.6419C78.7905 78.0069 79.6668 78.3252 79.642 78.3491C79.6172 78.3731 78.6954 78.9536 77.5934 79.639C76.434 80.3604 75.4998 80.8509 75.3762 80.8035C75.1881 80.7314 73.6762 79.8171 71.9617 78.7388L71.3932 78.3811L73.3318 77.6899C74.398 77.3096 75.3675 76.9939 75.4865 76.9885C75.6054 76.9828 76.5992 77.2769 77.6949 77.6419ZM16.8695 107.953C18.0553 109.41 20.0655 111.875 21.3365 113.431C22.6075 114.987 25.1029 118.044 26.8818 120.224C28.6606 122.405 30.9662 125.227 32.0053 126.495C33.0444 127.764 34.7383 129.839 35.7698 131.108C36.8012 132.377 40.533 136.95 44.0626 141.271C50.6185 149.297 59.7997 160.547 61.0623 162.101C61.4487 162.577 62.5349 163.907 63.4761 165.056C65.605 167.657 70.4395 173.579 72.508 176.12C73.3631 177.171 74.0083 178.03 73.9418 178.03C73.8755 178.03 71.5513 177.418 68.777 176.67C57.5615 173.647 39.7223 168.833 33.9521 167.273C20.6187 163.668 11.3169 161.164 11.2603 161.164C11.1781 161.164 11.16 161.113 5.96827 146.388C3.42442 139.173 1.3337 133.169 1.32245 133.046C1.31106 132.922 4.14551 126.426 7.62115 118.609L13.9406 104.397L14.327 104.851C14.5395 105.1 15.6836 106.496 16.8695 107.953ZM23.2079 111.355C25.3495 113.008 27.9454 115.019 28.9766 115.822C30.0077 116.626 31.9871 118.16 33.3752 119.231C34.7633 120.302 37.8135 122.662 40.1534 124.475C42.4933 126.288 45.3813 128.526 46.5711 129.447C48.6132 131.029 57.8333 138.176 62.2777 141.621C63.3953 142.488 65.4131 144.049 66.7615 145.091C68.1099 146.133 70.495 147.976 72.0615 149.187L74.9098 151.388V164.525C74.9098 177.29 74.9023 177.654 74.6443 177.377C74.4984 177.221 72.6356 174.952 70.505 172.336C66.6669 167.623 63.39 163.605 58.1595 157.2C56.6705 155.376 52.9116 150.771 49.8066 146.965C44.5753 140.553 41.4134 136.68 32.9359 126.297C16.7412 106.462 17.0348 106.823 16.871 106.55C16.8064 106.442 17.3296 106.803 18.0338 107.351C18.7379 107.9 21.0662 109.702 23.2079 111.355ZM115.134 146.369C115.101 146.398 114.231 147.099 113.2 147.925C109.403 150.968 98.5861 159.645 91.9274 164.988C88.1598 168.011 83.0004 172.149 80.4622 174.184L75.8472 177.883L75.8104 164.743C75.7901 157.516 75.7985 151.578 75.829 151.548C75.8743 151.503 114.318 146.382 114.99 146.332C115.103 146.323 115.167 146.34 115.134 146.369Z"
        fill="var(--primary-color)" />
</svg>