<svg width="405" height="401" viewBox="0 0 405 401" fill="none" xmlns="http://www.w3.org/2000/svg">
<path fill-rule="evenodd" clip-rule="evenodd" d="M265.179 0.833475C264.886 1.41566 262.709 6.94492 260.341 13.121L256.034 24.3498L263.178 48.4364C267.107 61.6841 270.264 72.6986 270.192 72.9132C270.12 73.1278 267.492 75.1509 264.352 77.4089L258.642 81.5145L232.982 75.1199L207.322 68.7254L185.741 65.1489L164.16 61.5724L158.568 64.4741C155.493 66.0704 146.863 70.5202 139.391 74.3626C120.082 84.2919 113.831 87.5207 108.436 90.3502L103.697 92.8362L72.7839 123.741C55.7817 140.739 41.7769 154.961 41.6617 155.346C20.8431 224.88 19.9896 227.626 17.3643 233.532C15.9207 236.778 11.4235 246.982 7.3702 256.206L0 272.978L10.3756 310.141C16.0822 330.58 21.0371 348.307 21.3869 349.533L22.0226 351.761L31.1429 356.322C36.1591 358.83 40.5239 360.883 40.8427 360.883C41.1615 360.883 46.9365 357.337 53.676 353.004C60.4155 348.671 66.1409 345.211 66.3988 345.316C66.6567 345.421 77.642 355.206 90.8106 367.061C103.979 378.916 116.035 389.759 117.6 391.156L120.447 393.698L158.822 397.349L197.198 401L216.037 394.935C226.399 391.599 237.919 387.896 241.636 386.707L248.395 384.544L260.356 375.295L272.318 366.047L274.455 360.883L276.593 355.719L301.452 355.621C316.023 355.563 326.458 355.376 326.666 355.168C326.882 354.952 324.473 350.076 320.447 342.588L313.875 330.361L303.313 327.739C297.503 326.297 292.545 324.946 292.294 324.735C291.83 324.347 267.436 262.219 267.665 262.01C267.776 261.908 272.311 266.943 278.274 273.786C279.41 275.089 281.498 277.447 282.914 279.025C284.33 280.602 287.017 283.617 288.886 285.725C290.755 287.832 294.264 291.784 296.684 294.507C299.105 297.23 302.457 301.008 304.134 302.903C305.81 304.797 307.446 306.626 307.769 306.966C308.092 307.305 309.993 309.294 311.993 311.385C313.992 313.476 318.728 318.445 322.517 322.429C328.806 329.042 333.188 333.633 341.049 341.848L343.89 344.817H356.903H369.915L375.589 339.192C378.71 336.098 381.263 333.344 381.263 333.074C381.263 332.295 370.54 305.656 370.04 305.192C369.793 304.962 364.384 303.586 358.021 302.134L346.451 299.494L339.329 290.572L332.208 281.649L328.765 272.4C319.263 246.878 309.384 220.218 309.157 219.484C308.948 218.807 311.398 215.543 322.933 201.132C330.65 191.493 337.183 183.257 337.451 182.831C337.718 182.405 341.952 170.789 346.86 157.017L355.782 131.978L369.423 118.338C383.049 104.714 383.065 104.696 383.29 102.831C383.414 101.804 384.242 93.2175 385.131 83.7503L386.748 66.537L388.831 62.1381C389.977 59.7187 391.48 56.5343 392.172 55.0616C392.863 53.5889 394.669 49.802 396.185 46.6462C397.701 43.4905 400.305 38.0259 401.971 34.5025L405 28.0965L401.358 14.4778C399.356 6.98739 397.621 0.704182 397.504 0.514836C397.387 0.325491 397.041 0.170575 396.735 0.170575C396.429 0.170575 392.091 3.15228 387.095 6.79689C373.307 16.8532 357.008 28.7606 352.95 31.7411L349.323 34.4057L329.612 36.2089L309.901 38.0121L308.937 37.1204C305.588 34.0198 266.969 0.44828 266.405 0.146475C265.843 -0.154183 265.61 -0.0233601 265.179 0.833475ZM273.148 8.15368C274.489 9.36931 277.898 12.3499 281.561 15.5106C282.196 16.058 284.351 17.9591 286.351 19.7351C288.351 21.5107 291.967 24.6703 294.388 26.7562C296.809 28.842 298.875 30.6422 298.98 30.7562C299.086 30.8705 300.463 32.0827 302.042 33.4498C303.62 34.8169 305.108 36.1198 305.348 36.3443C305.588 36.5692 306.357 37.2344 307.057 37.8228L308.328 38.8923L306.589 40.4743C305.633 41.3442 303.324 43.4331 301.457 45.1162C299.591 46.7992 297.108 49.0565 295.939 50.1317C289.704 55.8691 272.045 71.6827 271.964 71.6019C271.912 71.5499 269.348 62.9873 266.267 52.5741C263.186 42.1609 260.072 31.6795 259.348 29.2827C258.623 26.8859 258.031 24.7419 258.031 24.5185C258.031 24.1692 264.402 7.31405 265.909 3.67901L266.436 2.40599L269.027 4.58557C270.451 5.784 272.306 7.38979 273.148 8.15368ZM399.753 15.1904L403.127 27.9056L400.386 33.6418C398.879 36.7972 397.164 40.4112 396.575 41.6735C395.987 42.9358 394.099 46.8949 392.379 50.4714C390.659 54.0479 388.462 58.6523 387.496 60.7037C386.53 62.7551 385.637 64.4309 385.51 64.4279C385.385 64.4248 383.042 62.5153 380.306 60.1846C377.57 57.8536 369.942 51.3791 363.356 45.7963C356.769 40.2139 351.437 35.4779 351.505 35.2725C351.627 34.9076 395.809 2.47982 396.188 2.47676C396.294 2.47562 397.898 8.1969 399.753 15.1904ZM366.768 51.0452C376.289 59.1449 384.289 65.9442 384.546 66.1545C384.911 66.4533 384.62 70.6281 383.22 85.1985L381.425 103.86L368.039 117.24L354.653 130.619L337.628 132.333C328.265 133.275 320.168 134.048 319.636 134.049C319.082 134.05 312.614 130.652 304.527 126.109L290.387 118.168L281.481 95.9862L272.576 73.8048L274.584 71.8758C275.688 70.8151 278.406 68.3192 280.623 66.3293C286.021 61.484 295.492 52.9248 298.594 50.0889C304.547 44.6449 308.17 41.3974 309.171 40.6075C310.164 39.8245 311.67 39.6275 329.202 37.9842C339.628 37.0068 348.451 36.2323 348.808 36.2629C349.165 36.2935 357.247 42.9454 366.768 51.0452ZM232.868 76.8772C246.076 80.1841 256.883 83.0177 256.883 83.1742C256.883 83.4611 256.401 84.0976 250.367 91.7831C248.55 94.0973 242.157 102.274 236.16 109.953L225.258 123.914L221.183 137.685C215.416 157.174 207.812 182.825 205.534 190.472C204.469 194.049 203.476 197.405 203.327 197.931C203.179 198.457 202.925 198.856 202.764 198.818C202.603 198.78 198.763 194.047 194.232 188.299C189.7 182.552 184.493 175.956 182.661 173.641C180.829 171.327 177.432 167.024 175.113 164.079C172.795 161.133 166.553 153.215 161.243 146.483C155.933 139.751 147.045 128.476 141.491 121.428C135.938 114.38 130.901 108.028 130.299 107.312L129.203 106.01L109.708 110.506C98.9857 112.978 88.5018 115.412 86.4106 115.913C84.3195 116.414 82.561 116.776 82.5024 116.718C82.4443 116.66 87.5136 111.519 93.7678 105.293L105.138 93.9734L113.175 89.8621C117.596 87.601 123.107 84.7632 125.422 83.5563C129.364 81.5018 139.468 76.2989 156.996 67.2983L164.458 63.4658L186.655 67.1655L208.853 70.8648L232.868 76.8772ZM280.055 97.1896L288.839 119.235L290.37 120.159C291.738 120.984 295.485 123.095 313.452 133.162L318.548 136.017L336.008 134.276C345.61 133.319 353.512 132.58 353.566 132.634C353.62 132.689 349.712 143.787 344.88 157.297L336.096 181.862L321.598 199.957L307.1 218.053L304.284 219.347C302.735 220.059 297.765 222.437 293.24 224.631C285.264 228.5 279.918 231.065 272.765 234.457C270.87 235.356 267.533 236.972 265.347 238.049C263.161 239.127 261.307 240.008 261.226 240.008C260.997 240.008 262.559 237.006 270.28 222.603C294.147 178.083 301.277 164.618 301.277 164.062C301.277 163.719 300.266 161.517 299.03 159.168C297.795 156.82 293.554 148.529 289.606 140.745C285.658 132.961 281.524 124.871 280.419 122.767C279.315 120.663 275.87 113.95 272.764 107.849C269.658 101.748 265.498 93.618 263.519 89.7825L259.921 82.8096L261.75 81.493C262.757 80.7685 265.13 79.0484 267.024 77.6702C268.919 76.292 270.649 75.1597 270.87 75.154C271.09 75.1482 275.223 85.0642 280.055 97.1896ZM264.242 95.0345C267.088 100.61 272.313 110.852 275.853 117.794C279.394 124.737 284.325 134.376 286.811 139.215C289.298 144.054 293.17 151.647 295.417 156.088L299.502 164.163L294.114 174.258C291.151 179.81 286.797 187.967 284.44 192.385C282.082 196.803 279.593 201.45 278.908 202.713C278.222 203.975 276.7 206.815 275.525 209.024C274.349 211.233 269.933 219.496 265.71 227.385C261.488 235.274 258.033 241.94 258.032 242.199C258.029 243.091 290.593 325.884 291.097 326.265C291.375 326.476 296.337 327.823 302.125 329.26L312.647 331.871L318.23 342.265C321.301 347.982 323.927 352.96 324.067 353.328C324.307 353.961 323.049 353.998 300.935 353.998C288.073 353.998 277.549 353.862 277.549 353.696C277.549 353.53 278.41 351.359 279.462 348.872C280.515 346.384 281.376 344.112 281.376 343.822C281.376 343.304 265.745 332.621 264.516 332.299C264.168 332.209 260.268 333.943 255.849 336.153L247.815 340.172L244.14 332.071C242.119 327.616 238.29 319.237 235.631 313.451C232.973 307.665 229.191 299.403 227.228 295.09C225.265 290.777 222.121 283.892 220.242 279.79C218.363 275.687 215.211 268.802 213.238 264.489L209.651 256.647L207.063 230.063C205.64 215.441 204.47 202.808 204.463 201.99C204.457 201.17 206.616 193.179 209.269 184.203C217.852 155.161 220.819 145.137 223.891 134.808L226.909 124.663L242.709 104.465C251.399 93.356 258.635 84.4086 258.788 84.5822C258.942 84.7559 261.396 89.4593 264.242 95.0345ZM131.63 111.811C133.267 113.886 137.308 119.006 140.61 123.191C143.911 127.376 152.183 137.857 158.992 146.483C165.801 155.109 174.216 165.781 177.693 170.199C181.169 174.617 188.181 183.509 193.274 189.959L202.534 201.686L205.206 229.157L207.878 256.628L203.199 261.402C200.625 264.027 190.235 274.531 180.109 284.745C169.984 294.958 158.531 306.53 154.659 310.459L147.619 317.605L129.092 319.355C118.902 320.318 110.529 321.062 110.485 321.008C110.441 320.954 108.503 314.799 106.179 307.331C102.249 294.704 87.3605 247.199 80.4626 225.281C73.5279 203.245 72.7349 200.563 72.9691 199.93C73.1039 199.567 80.9743 179.813 90.4593 156.031L107.705 112.792L117.712 110.45C123.215 109.161 127.928 108.092 128.186 108.074C128.442 108.055 129.992 109.737 131.63 111.811ZM105.237 114.065C105.137 114.433 97.3527 134.012 87.9388 157.575L70.8222 200.416L78.6723 225.472C82.99 239.252 89.7379 260.769 93.6676 273.287C97.5972 285.805 101.209 297.337 101.693 298.915C106.412 314.286 109.002 322.159 109.508 322.676C110.43 323.619 172.344 360.614 173.307 360.798C173.77 360.887 186.263 358.95 201.069 356.494L227.988 352.03L246.094 343.026L264.199 334.022L271.846 339.104C276.052 341.9 279.414 344.372 279.319 344.598C276.275 351.802 271.039 364.466 271.028 364.65C271.02 364.787 265.715 368.97 259.24 373.946L247.466 382.992L238.875 385.735C234.15 387.244 225.72 389.949 220.142 391.748C214.564 393.547 207.039 395.958 203.418 397.107L196.836 399.196L158.924 395.585L121.011 391.974L118.802 389.912C116.094 387.384 114.727 386.151 107.435 379.653C104.277 376.84 100.737 373.661 99.5663 372.588C98.3959 371.515 95.9887 369.346 94.2167 367.768C92.4452 366.19 89.8634 363.867 88.4799 362.604C84.2491 358.744 82.7722 357.417 76.818 352.122C73.6607 349.315 70.0824 346.069 68.8661 344.909C66.974 343.104 38.7029 304.901 38.1576 303.412C38.0608 303.148 36.9402 296.391 35.6669 288.396C33.5827 275.307 27.2848 235.839 25.3093 223.484L24.5328 218.627L33.965 187.145L43.3972 155.663L61.5648 137.47L79.7324 119.277L92.0529 116.382C98.8288 114.79 104.608 113.467 104.896 113.442C105.217 113.413 105.349 113.654 105.237 114.065ZM310.867 229.324C312.779 234.464 315.104 240.735 316.033 243.259C316.961 245.784 320.621 255.642 324.166 265.167L330.611 282.484L337.574 291.221C341.404 296.026 344.839 300.23 345.207 300.563C345.587 300.907 350.259 302.177 356.011 303.501C361.585 304.785 366.775 306.001 367.544 306.205L368.942 306.575L374.172 319.641L379.401 332.706L374.309 337.805L369.218 342.905H356.819H344.419L343.467 341.853C342.943 341.274 340.948 339.166 339.033 337.167C337.118 335.168 333.652 331.55 331.33 329.127C329.009 326.703 324.182 321.627 320.603 317.847C317.025 314.066 312.698 309.508 310.987 307.717C309.276 305.927 305.678 301.966 302.991 298.915C300.304 295.865 297.393 292.594 296.522 291.648C295.65 290.701 288.313 282.448 280.215 273.308L265.493 256.689L262.736 249.785C261.219 245.989 260.101 242.758 260.253 242.607C260.494 242.365 274.475 235.589 291.9 227.267C295.058 225.759 299.794 223.469 302.425 222.178C305.056 220.887 307.249 219.863 307.299 219.904C307.348 219.945 308.954 224.184 310.867 229.324ZM29.9248 263.674L36.4274 304.307L50.5952 323.769C58.3872 334.473 64.7535 343.372 64.7428 343.546C64.7245 343.831 41.915 358.606 41.0287 358.906C40.3658 359.131 23.4646 350.504 23.2737 349.844C23.1738 349.498 20.7424 340.782 17.8702 330.473C9.04454 298.793 4.70769 283.254 3.26985 278.164L1.89249 273.286L3.13514 270.322C3.81828 268.692 5.89983 263.915 7.76056 259.707C18.936 234.435 21.8301 227.691 22.4857 225.398C22.8879 223.989 23.2633 222.883 23.3196 222.939C23.3758 222.995 26.348 241.326 29.9248 263.674ZM209.753 261.142C210.357 262.457 213.442 269.213 216.608 276.156C219.774 283.098 223.004 290.156 223.785 291.839C224.567 293.522 226.46 297.653 227.992 301.019C229.524 304.385 234.171 314.541 238.319 323.588C242.467 332.634 245.945 340.243 246.048 340.496C246.165 340.784 242.782 342.681 236.953 345.597C227.939 350.104 227.543 350.26 223.275 350.99C220.858 351.403 218.752 351.603 218.596 351.435C218.439 351.266 216.128 346.874 213.46 341.674C208.836 332.662 208.552 332.21 207.391 332.021C206.722 331.912 198.854 331.062 189.908 330.132L173.643 328.441L161.685 323.337C155.108 320.529 149.769 318.12 149.821 317.983C149.938 317.674 208.327 258.751 208.517 258.751C208.592 258.751 209.148 259.827 209.753 261.142ZM160.823 324.857L173.261 330.206L190.291 331.998C199.658 332.984 207.341 333.819 207.364 333.853C207.388 333.888 208.354 335.723 209.512 337.932C210.67 340.141 212.776 344.155 214.194 346.853C215.611 349.551 216.686 351.842 216.583 351.945C216.48 352.048 206.777 353.737 195.02 355.699L173.643 359.267L143.247 341.044C123.585 329.257 113.111 322.771 113.588 322.677C115.04 322.389 147.628 319.278 148.002 319.392C148.212 319.456 153.982 321.915 160.823 324.857Z" fill="black"/>
</svg>
