<svg width="372" height="461" viewBox="0 0 372 461" fill="none" xmlns="http://www.w3.org/2000/svg">
<path fill-rule="evenodd" clip-rule="evenodd" d="M332.104 8.64715C339.922 13.403 347.792 18.1899 349.595 19.2849L352.872 21.2759L362.436 49.9841L372 78.692L368.809 88.5819C363.187 106.007 361.788 110.347 360.085 115.649L358.417 120.843L361.806 157.354L365.195 193.865L362.49 204.892C357.618 224.751 354.937 235.743 352.605 245.417L350.31 254.941L341.727 264.616C337.006 269.937 332.109 275.471 330.843 276.914L328.543 279.537L313.545 318.236C305.296 339.521 298.005 358.4 297.343 360.19L296.14 363.445L287.096 368.726C275.794 375.326 275.058 375.798 275.058 376.463C275.058 376.761 274.07 387.723 272.862 400.824C271.655 413.925 270.667 424.975 270.667 425.38C270.667 425.898 273.594 428.07 280.547 432.71C286.87 436.93 293.087 441.497 297.813 445.396C301.875 448.747 306.905 452.882 308.992 454.586C313.467 458.24 314.063 458.881 313.502 459.442C313.228 459.716 309.082 459.398 300.681 458.456L288.265 457.064L277.57 452.969C271.687 450.717 265.356 448.307 263.5 447.614L260.125 446.354L254.917 448.818C238.782 456.447 241.741 455.459 226.272 458.382C218.652 459.822 212.05 461 211.601 461C211.152 461 210.785 460.746 210.785 460.436C210.785 460.126 213.973 457.322 217.871 454.206C224.258 449.097 225.705 448.148 232.542 444.585C254.042 433.38 252.667 434.174 252.476 433.057C252.38 432.496 251.492 423.499 250.503 413.062C249.513 402.626 248.609 393.51 248.492 392.804L248.281 391.522L245.202 393.348C243.508 394.352 240.121 396.335 237.673 397.755L233.224 400.336L224.188 396.484C219.218 394.364 214.95 392.698 214.703 392.78C214.456 392.863 206.777 405.504 197.638 420.873C187.632 437.702 180.788 448.816 180.434 448.816C179.757 448.816 179.216 447.189 171.865 423.049C165.24 401.294 165.171 401.078 164.792 401.078C164.614 401.078 155.367 406.663 144.245 413.489L124.022 425.901L113.41 428.627C107.573 430.126 92.8271 433.905 80.6411 437.025C57.6896 442.901 47.7631 445.447 26.2918 450.963C19.3447 452.748 13.2814 454.209 12.8183 454.209C12.3553 454.209 11.9764 453.97 11.9764 453.679C11.9764 453.388 15.3897 447.183 19.5615 439.89C23.7332 432.598 27.1465 426.454 27.1465 426.238C27.1465 425.989 22.1959 425.846 13.5733 425.846C0.885059 425.846 0 425.8 0 425.143C0 424.756 1.21401 422.914 2.69788 421.048C4.18176 419.183 10.9971 410.556 17.8432 401.877C24.689 393.198 35.9005 378.997 42.7578 370.318C67.2491 339.321 66.0714 340.883 67.2631 337.812C84.7359 292.784 90.9145 277.525 95.43 268.251C98.1047 262.758 101.239 256.286 102.396 253.87C103.553 251.453 107.867 242.554 111.983 234.095C116.098 225.636 120.679 216.199 122.163 213.123C123.647 210.047 127.225 202.681 130.115 196.754L135.369 185.978L140.098 181.175C142.699 178.532 145.251 175.901 145.769 175.327C146.287 174.753 150.673 170.169 155.516 165.14C169.582 150.534 167.752 152.973 174.662 139.618C176.368 136.323 178.341 132.547 179.048 131.229C183.467 122.991 185.346 118.422 193.262 96.6742C197.94 83.8209 206.087 61.4548 211.366 46.9713L220.965 20.6383L231.544 12.2932C237.362 7.70357 243.201 3.0712 244.518 1.999L246.914 0.0499339L282.402 0.0251668L317.89 0L332.104 8.64715ZM241.078 6.90541C237.429 9.80883 231.726 14.3254 228.403 16.9423L222.362 21.7002L225.256 23.5474C245.047 36.1785 272.492 53.3046 272.793 53.2115C275.855 52.2632 350.019 21.7201 349.798 21.4988C349.628 21.329 342.226 16.7818 333.35 11.394L317.21 1.59792L282.461 1.6123L247.712 1.62668L241.078 6.90541ZM344.921 25.7165C341.517 27.1027 333.164 30.4979 326.357 33.2607C319.551 36.0235 313.089 38.6689 311.998 39.1395L310.014 39.9948L312.197 41.1916C313.398 41.8499 316.447 43.479 318.972 44.8113C344.059 58.0508 346.118 59.2081 346.118 60.0654C346.118 60.826 342.919 87.8077 342.304 92.2324L342.061 93.9829L344.788 92.4509C346.288 91.6084 352.449 88.1669 358.48 84.8024C364.51 81.4384 369.583 78.5466 369.753 78.3764C370.12 78.0089 352.025 23.4699 351.482 23.3077C351.276 23.2461 348.324 24.3303 344.921 25.7165ZM218.033 33.6015C216.018 39.1383 214.444 43.7427 214.535 43.8337C214.626 43.9248 221.357 42.5946 229.492 40.878C237.628 39.161 244.157 37.6342 244.002 37.4844C243.575 37.0725 222.775 23.9488 222.199 23.7275C221.855 23.5957 220.54 26.7136 218.033 33.6015ZM229.348 42.5758C220.785 44.4158 213.734 45.9258 213.679 45.9306C213.624 45.9358 213.579 51.7415 213.579 58.8322V71.7243L214.712 73.1136C215.335 73.8779 218.09 77.3793 220.835 80.8947C223.579 84.4101 232.127 95.3315 239.83 105.164C247.532 114.997 254.203 123.536 254.653 124.14C255.376 125.109 255.473 125.144 255.486 124.438C255.502 123.556 246.443 42.5263 246.096 40.4474C245.977 39.7335 245.663 39.1674 245.399 39.1894C245.134 39.2118 237.911 40.7358 229.348 42.5758ZM247.912 40.6679C247.912 41.456 248.61 47.7634 254.093 96.4744C257.189 123.969 257.423 125.899 257.697 126.173C257.888 126.364 291.067 122.684 291.344 122.441C291.41 122.384 293.969 109.058 297.031 92.8276C300.094 76.5971 303.514 58.4943 304.632 52.5991C305.75 46.704 306.574 41.7896 306.463 41.6786C306.262 41.478 304.401 42.1967 291.825 47.332C275.232 54.1076 272.512 55.1558 272.021 54.9673C271.615 54.8115 253.508 43.4766 248.81 40.4374C247.983 39.9021 247.912 39.92 247.912 40.6679ZM308.414 41.613C308.261 42.072 305.737 55.4179 295.434 110.237C294.342 116.048 293.507 120.861 293.578 120.932C293.649 121.003 297.191 119.108 301.449 116.722C305.707 114.335 316.017 108.562 324.361 103.894C332.705 99.2249 339.73 95.1961 339.974 94.9412C340.349 94.5489 344.722 60.3287 344.424 60.123C344.368 60.0842 340.1 57.8411 334.94 55.139C329.78 52.4366 324.032 49.4173 322.165 48.4294C320.299 47.4419 317.065 45.7333 314.98 44.6331C312.894 43.5325 310.603 42.2834 309.89 41.8567C308.877 41.2515 308.553 41.198 308.414 41.613ZM209.505 57.025C206.946 64.0894 206.886 63.1119 210.137 67.2824L211.982 69.6494V60.1917C211.982 54.99 211.938 50.7348 211.883 50.7356C211.828 50.7364 210.758 53.5663 209.505 57.025ZM198.908 86.0328C195.121 96.4405 192.022 105.169 192.022 105.429C192.022 105.69 195.3 111.486 199.307 118.31L206.593 130.717L213.735 136.366C217.664 139.473 226.017 146.063 232.299 151.01C238.58 155.958 245.222 161.192 247.057 162.641C250.077 165.027 250.764 165.376 254.295 166.324C256.44 166.9 258.532 167.497 258.942 167.651C259.708 167.939 258.227 166.221 247.512 154.387C244.109 150.628 239.887 145.954 238.131 144.001C236.374 142.048 232.153 137.383 228.749 133.635C218.961 122.855 216.591 120.201 216.316 119.707C216.175 119.453 215.512 116.369 214.842 112.853C208.869 81.4775 206.327 68.405 206.082 67.8105C205.888 67.3376 203.557 73.2603 198.908 86.0328ZM209.047 74.0037C209.781 77.794 212.024 89.4336 214.032 99.87L217.684 118.845L220.921 122.441C222.702 124.418 224.25 126.126 224.362 126.236C224.473 126.346 227.882 130.121 231.937 134.625C235.991 139.129 239.409 142.904 239.531 143.014C239.653 143.124 245.746 149.865 253.071 157.994C260.395 166.124 266.879 173.288 267.479 173.915L268.57 175.055L281.495 167.691C288.603 163.64 299.603 157.388 305.937 153.798C315.315 148.484 317.625 147.005 318.374 145.841C318.88 145.055 321.941 139.558 325.177 133.626C328.413 127.694 331.998 121.132 333.144 119.045C334.289 116.958 337.879 110.396 341.122 104.464C344.364 98.5318 347.104 93.5283 347.21 93.3453C347.486 92.8707 346.191 93.5678 332.146 101.455C303.819 117.362 295.169 122.197 294.22 122.652C293.521 122.988 292.539 124.52 290.935 127.779C289.677 130.336 286.973 135.663 284.925 139.618C282.877 143.573 278.909 151.258 276.106 156.696C273.139 162.453 270.778 166.583 270.454 166.583C270.147 166.583 269.731 166.268 269.529 165.884C269.326 165.5 266.244 157.007 262.678 147.011L256.196 128.838L246.195 116.051C237.022 104.325 230.268 95.7014 221.163 84.0906C219.268 81.6737 215.501 76.8648 212.792 73.4045C210.083 69.9442 207.832 67.1126 207.789 67.1126C207.747 67.1126 208.312 70.2134 209.047 74.0037ZM359.937 85.8814C354.912 88.7061 350.576 91.2568 350.3 91.5488C350.024 91.8413 348.189 95.0463 346.22 98.6716C344.252 102.297 341.653 107.061 340.444 109.258C336.834 115.821 327.117 133.523 322.931 141.162L319.02 148.298L311.511 152.579C307.38 154.934 298.342 160.081 291.426 164.019L278.851 171.177L292.734 171.282L306.618 171.387L307 172.281C307.21 172.772 308.646 178.028 310.19 183.961C311.734 189.893 313.13 195.043 313.29 195.404C313.523 195.928 315.293 194.513 321.966 188.469C326.577 184.292 331.966 179.412 333.941 177.624C341.534 170.752 340.038 173.704 346.722 152.402C352.869 132.811 357.803 117.245 361.253 106.561C363.996 98.0648 366.959 88.8731 368.4 84.3902C369.053 82.358 369.472 80.7062 369.33 80.7201C369.189 80.7337 364.962 83.0563 359.937 85.8814ZM188.474 114.688C186.479 120.164 184.39 124.586 177.92 137.032C170.325 151.642 169.133 153.611 165.686 157.24C165.583 157.348 165.762 157.341 166.085 157.222C168.141 156.469 193.174 149.805 193.949 149.805C194.473 149.805 206.227 152.955 220.067 156.805C233.908 160.655 245.287 163.75 245.354 163.683C245.421 163.616 236.508 156.501 225.547 147.873L205.618 132.184L202.47 126.913C200.738 124.014 197.491 118.541 195.253 114.751C193.016 110.96 191.135 107.86 191.073 107.86C191.011 107.86 189.841 110.932 188.474 114.688ZM273.661 126.155C265.098 127.158 258.02 128.033 257.932 128.098C257.801 128.198 270.177 163.345 270.47 163.702C270.521 163.765 273.308 158.462 276.663 151.917C280.018 145.372 283.25 139.119 283.846 138.02C285.64 134.716 290.627 124.766 290.627 124.493C290.627 124.154 291.378 124.081 273.661 126.155ZM356.186 127.834C355.722 129.262 352.718 138.789 349.511 149.006C346.305 159.223 343.318 168.7 342.875 170.065C342.012 172.726 341.878 172.867 329.94 183.561C325.013 187.975 318.028 194.349 315.496 196.744C313.564 198.57 312.654 200.193 304.852 215.719L296.321 232.697L304.022 270.049C308.258 290.592 312.032 308.894 312.409 310.72C312.787 312.545 313.223 313.893 313.378 313.716C313.534 313.538 316.696 305.523 320.405 295.906L327.15 278.419L329.748 275.513C331.176 273.915 333.603 271.195 335.14 269.469C336.677 267.742 338.114 266.132 338.333 265.89C338.553 265.648 340.08 263.924 341.727 262.059C343.374 260.194 345.419 257.908 346.272 256.979C347.125 256.051 348.044 254.971 348.314 254.58C348.585 254.189 350.717 246.05 353.053 236.492C355.389 226.935 358.665 213.542 360.334 206.731C362.003 199.92 363.35 193.628 363.327 192.749C363.28 190.877 357.33 126.226 357.15 125.636C357.084 125.417 356.65 126.405 356.186 127.834ZM178.049 155.611L163.079 159.75L159.685 163.292C157.819 165.24 152.51 170.777 147.887 175.597C135.887 188.108 136.465 187.388 133.604 193.372C132.192 196.325 129.287 202.337 127.148 206.731C121.224 218.898 117.749 226.224 117.864 226.301C117.921 226.339 141.969 225.546 171.305 224.539L224.641 222.709L226.656 221.112C227.765 220.233 232.956 216.042 238.192 211.798C243.428 207.554 250.208 202.071 253.258 199.614C256.309 197.157 260.457 193.798 262.478 192.15C264.498 190.502 270.606 185.559 276.05 181.164L285.949 173.175L280.875 173.063L275.801 172.951L271.956 175.031L268.112 177.111L264.879 173.611L261.647 170.112L228.01 160.758C209.509 155.612 194.068 151.419 193.696 151.438C193.324 151.457 186.283 153.335 178.049 155.611ZM285.038 176.089C282.953 177.793 278.012 181.797 274.06 184.988C225.699 224.032 227.324 222.674 228.576 223.004C229.22 223.173 244.029 225.106 261.485 227.299C278.94 229.493 293.615 231.352 294.095 231.432C294.88 231.563 295.834 229.855 303.517 214.56L312.065 197.543L308.832 185.262L305.598 172.981L297.215 172.986L288.831 172.991L285.038 176.089ZM165.873 226.329C139.306 227.276 117.372 228.062 117.132 228.077C116.892 228.091 115.752 230.09 114.6 232.518C113.448 234.946 110.346 241.372 107.706 246.799C102.332 257.847 98.1522 266.479 94.3645 274.349C92.9617 277.263 90.4602 283.106 88.8059 287.332C87.1515 291.558 84.1071 299.33 82.04 304.604C72.599 328.691 70.6728 333.631 69.2197 337.481C67.9645 340.807 67.1369 342.256 64.9057 345.037L62.1448 348.479L63.4466 364.691C64.1628 373.609 64.7916 380.949 64.8443 381.005C65.0008 381.169 94.517 351.918 198.269 248.776L222.681 224.508L218.429 224.557C216.091 224.585 192.441 225.382 165.873 226.329ZM216.573 233.165C211.743 237.922 197.189 252.347 184.231 265.22C171.274 278.092 142.002 307.14 119.183 329.771C96.3638 352.401 75.2849 373.311 72.3411 376.238C69.3973 379.163 67.0619 381.63 67.1513 381.72C67.2403 381.809 76.8243 380.462 88.449 378.726C100.073 376.99 119.465 374.111 131.541 372.329C143.617 370.547 153.883 368.871 154.355 368.605C154.826 368.339 159.671 363.986 165.121 358.933C173.41 351.248 189.979 335.942 198.818 327.806C200.031 326.69 202.373 324.518 204.024 322.98C205.674 321.442 209.083 318.285 211.599 315.964C214.115 313.643 218.582 309.508 221.524 306.776C224.467 304.043 230.485 298.501 234.898 294.46C239.311 290.419 244.269 285.834 245.916 284.272C247.562 282.709 250.886 279.618 253.301 277.402C255.716 275.187 259.332 271.861 261.336 270.013C263.34 268.165 270.128 261.911 276.419 256.115L287.859 245.577L290.982 239.402C292.796 235.817 293.921 233.167 293.664 233.082C293.421 233.002 288.102 232.3 281.845 231.522C275.587 230.743 260.587 228.849 248.51 227.311C236.434 225.775 226.284 224.516 225.955 224.515C225.626 224.515 221.404 228.406 216.573 233.165ZM292.364 240.51C290.823 243.464 287.22 250.554 284.356 256.266C276.501 271.938 254.762 315.054 249.863 324.677C247.487 329.347 245.604 333.166 245.679 333.166C245.754 333.166 258.189 330.107 273.312 326.368C288.434 322.629 303.208 318.996 306.143 318.293C309.077 317.591 311.558 316.806 311.656 316.549C311.755 316.292 310.469 309.455 308.799 301.355C307.129 293.254 304.955 282.672 303.967 277.838C302.98 273.005 300.595 261.42 298.668 252.095L295.165 235.139L292.364 240.51ZM282.642 252.607C280.559 254.582 215.615 314.597 196.812 331.923C194.287 334.249 190.874 337.42 189.227 338.968C185.724 342.261 177.536 349.83 173.259 353.73C169.639 357.03 160.72 365.277 157.689 368.125C156.064 369.652 145.95 375.828 118.766 391.891C67.7074 422.06 54.5426 429.84 35.6306 441.016C26.5736 446.369 19.2165 450.801 19.2812 450.866C19.3758 450.96 105.885 428.915 119.651 425.288C123.16 424.364 124.307 423.721 144.3 411.467L165.268 398.615L176.155 389.56C182.143 384.579 191.066 377.179 195.985 373.114C200.904 369.05 208.722 362.578 213.359 358.733C229.635 345.235 237.482 338.742 240.345 336.401L243.235 334.038L252.084 316.524C280.669 259.945 285.475 250.378 285.362 250.268C285.294 250.201 284.07 251.254 282.642 252.607ZM277.463 327.032C245.173 335.039 244.502 335.225 242.672 336.678C238.885 339.686 216.172 358.573 214.949 359.732L213.685 360.93L214.442 375.511C214.859 383.531 215.265 390.279 215.343 390.508C215.485 390.92 232.272 398.282 233.07 398.282C233.299 398.282 237.405 395.975 242.196 393.157C246.986 390.338 260.517 382.402 272.264 375.521C284.011 368.639 293.921 362.721 294.287 362.369C294.802 361.874 311.387 319.787 311.387 318.974C311.387 318.629 310.582 318.82 277.463 327.032ZM50.4147 363.37C44.8824 370.378 37.7313 379.436 34.5236 383.501C31.3159 387.566 26.1301 394.127 22.9995 398.082C19.8689 402.037 14.1988 409.227 10.3991 414.061C6.5994 418.895 3.21646 423.164 2.88112 423.549C2.30226 424.213 2.93262 424.248 15.4452 424.248H28.6184L40.2284 410.366C46.6134 402.731 54.3996 393.435 57.5311 389.708L63.2239 382.933L62.0981 368.336C61.4789 360.308 60.8597 353.04 60.7228 352.185L60.4737 350.63L50.4147 363.37ZM206.54 366.582C195.069 376.082 184.999 384.431 177.185 390.92C172.648 394.688 168.387 398.201 167.718 398.725L166.501 399.68L173.224 421.706C176.923 433.819 180.117 444.237 180.323 444.857C180.748 446.133 179.261 448.479 197.82 417.257C203.043 408.468 208.73 398.906 210.457 396.007L213.597 390.737L212.906 376.532C212.526 368.72 212.094 362.328 211.946 362.328C211.798 362.328 209.365 364.243 206.54 366.582ZM119.365 375.741C102.788 378.237 83.6756 381.11 76.8933 382.124C65.0674 383.894 64.5265 384.013 63.6726 385.034C60.0737 389.335 43.9003 408.638 37.4746 416.301L29.6384 425.646L23.2546 436.831C19.7435 442.983 16.4564 448.714 15.9506 449.567L15.0308 451.116L15.9985 450.604C16.531 450.323 23.2542 446.373 30.9391 441.827C51.9748 429.383 136.631 379.366 143.817 375.137C149.587 371.74 150.642 371.039 149.805 371.16C149.64 371.184 135.942 373.245 119.365 375.741ZM261.884 383.542C255.846 387.079 250.691 390.181 250.43 390.433C250.062 390.787 250.45 395.884 252.138 412.863L254.322 434.834L253.444 435.433C252.962 435.763 246.444 439.245 238.961 443.17C226.511 449.702 224.927 450.652 220.303 454.356C217.524 456.582 215.4 458.459 215.583 458.527C215.766 458.594 221.243 457.635 227.755 456.395L239.594 454.141L249.841 449.352L260.088 444.564L262.283 445.36C263.491 445.797 269.945 448.243 276.626 450.795L288.773 455.434L299.146 456.621C304.852 457.274 309.583 457.745 309.66 457.668C309.737 457.59 307.867 455.93 305.503 453.977C303.14 452.025 298.593 448.267 295.4 445.627C292.031 442.842 285.288 437.975 279.341 434.035L269.09 427.244L269.081 425.646C269.073 424.199 272.743 382.857 273.238 378.807C273.352 377.873 273.314 377.109 273.154 377.109C272.993 377.109 267.921 380.004 261.884 383.542Z" fill="black"/>
</svg>
