<svg width="80" height="76" viewBox="0 0 80 76" fill="none" xmlns="http://www.w3.org/2000/svg">
<path fill-rule="evenodd" clip-rule="evenodd" d="M40 0.5C17.9 0.5 0 17.7057 0 38.9485C0 55.962 11.45 70.3321 27.35 75.4265C29.35 75.763 30.1 74.6095 30.1 73.6002C30.1 72.6871 30.05 69.6593 30.05 66.4392C20 68.2175 17.4 64.0842 16.6 61.9215C16.15 60.8161 14.2 57.4038 12.5 56.4907C11.1 55.7697 9.1 53.9915 12.45 53.9434C15.6 53.8954 17.85 56.731 18.6 57.8844C22.2 63.6998 27.95 62.0657 30.25 61.0564C30.6 58.5573 31.65 56.8751 32.8 55.9139C23.9 54.9527 14.6 51.6365 14.6 36.93C14.6 32.7487 16.15 29.2883 18.7 26.5969C18.3 25.6357 16.9 21.6947 19.1 16.4081C19.1 16.4081 22.45 15.3988 30.1 20.349C33.3 19.484 36.7 19.0514 40.1 19.0514C43.5 19.0514 46.9 19.484 50.1 20.349C57.75 15.3507 61.1 16.4081 61.1 16.4081C63.3 21.6947 61.9 25.6357 61.5 26.5969C64.05 29.2883 65.6 32.7006 65.6 36.93C65.6 51.6846 56.25 54.9527 47.35 55.9139C48.8 57.1154 50.05 59.4224 50.05 63.0269C50.05 68.1694 50 72.3026 50 73.6002C50 74.6095 50.75 75.811 52.75 75.4265C60.6906 72.8496 67.5906 67.9441 72.4789 61.4004C77.3672 54.8568 79.9976 47.0044 80 38.9485C80 17.7057 62.1 0.5 40 0.5Z" fill="black"/>
</svg>
