<svg width="90" height="90" viewBox="0 0 90 90" fill="none" xmlns="http://www.w3.org/2000/svg">
<path d="M45.4576 19.7998C38.8944 19.8063 32.6018 22.4153 27.9605 27.0544C23.3192 31.6934 20.7081 37.9835 20.7002 44.5447C20.6952 49.2164 22.0077 53.7688 24.4834 57.7099L25.07 58.6443L22.5694 67.7739L31.9405 65.3188L32.8403 65.8555C36.6559 68.1132 41.0088 69.3028 45.4427 69.2997H45.4476C52.0087 69.2905 58.2985 66.6811 62.9383 62.0436C67.5781 57.4061 70.1895 51.1187 70.2 44.5597C70.2114 41.3085 69.5775 38.0873 68.335 35.0828C67.0926 32.0782 65.2662 29.3499 62.9617 27.0558C60.6692 24.749 57.9416 22.9199 54.9369 21.6743C51.9323 20.4288 48.7103 19.7917 45.4576 19.7998ZM60.0137 55.1753C59.3923 56.9148 56.4194 58.4952 54.9926 58.7089C53.4285 58.9785 51.823 58.8781 50.3047 58.4156C48.8642 57.9697 47.4487 57.4472 46.0641 56.8501C38.5971 53.6297 33.7252 46.1202 33.3473 45.6182C32.9795 45.1212 30.3148 41.5827 30.3148 37.9249C30.3148 34.2621 32.2338 32.463 32.9148 31.7175C33.1649 31.435 33.4706 31.2071 33.8127 31.0481C34.1549 30.889 34.5262 30.8022 34.9034 30.7931C35.4005 30.7931 35.8927 30.7981 36.3302 30.818C36.7875 30.8378 37.399 30.644 38.0005 32.0952C38.622 33.5862 40.1134 37.244 40.2973 37.6167C40.4812 37.9845 40.6055 38.4219 40.3619 38.9189C40.1134 39.4208 39.9941 39.724 39.6162 40.1613C39.2484 40.5987 38.8357 41.1304 38.5026 41.4684C38.1298 41.8362 37.742 42.2387 38.1745 42.9842C38.612 43.7247 40.1034 46.1649 42.3107 48.138C45.1543 50.6726 47.5555 51.4529 48.2962 51.8306C49.0419 52.1983 49.4744 52.1437 49.9119 51.6417C50.3444 51.1398 51.7712 49.4699 52.2683 48.7294C52.7655 47.9839 53.2576 48.1081 53.9437 48.3517C54.6248 48.6051 58.2837 50.3992 59.0244 50.772C59.7602 51.1398 60.2623 51.3286 60.4512 51.6417C60.6302 51.9498 60.6302 53.4358 60.0137 55.1753Z" fill="black"/>
<path d="M85 0H5C3.67392 0 2.40215 0.526784 1.46447 1.46447C0.526784 2.40215 0 3.67392 0 5V85C0 86.3261 0.526784 87.5979 1.46447 88.5355C2.40215 89.4732 3.67392 90 5 90H85C86.3261 90 87.5979 89.4732 88.5355 88.5355C89.4732 87.5979 90 86.3261 90 85V5C90 3.67392 89.4732 2.40215 88.5355 1.46447C87.5979 0.526784 86.3261 0 85 0ZM45.2 74.48H45.19C40.1903 74.4805 35.2702 73.2273 30.88 70.835L15 75L19.25 59.48C16.6249 54.9261 15.2443 49.7616 15.2469 44.5053C15.2495 39.249 16.6351 34.0859 19.2647 29.5346C21.8942 24.9833 25.6751 21.204 30.2275 18.5764C34.78 15.9488 39.9437 14.5653 45.2 14.565C49.1377 14.5541 53.0383 15.325 56.6758 16.8331C60.3132 18.3411 63.6151 20.5562 66.39 23.35C69.1778 26.1268 71.387 29.429 72.8898 33.0654C74.3926 36.7019 75.1592 40.6003 75.145 44.535C75.1331 52.4733 71.9744 60.083 66.3612 65.6962C60.748 71.3094 53.1383 74.4681 45.2 74.48Z" fill="black"/>
</svg>
