<svg width="397" height="332" viewBox="0 0 397 332" fill="none" xmlns="http://www.w3.org/2000/svg">
    <path fillRule="evenodd" clipRule="evenodd"
        d="M389.817 2.36564C386.468 3.6479 377.598 7.00857 370.107 9.83347C362.615 12.6584 350.501 17.2276 343.186 19.9879C330.556 24.7525 322.445 27.8092 297.035 37.3789C290.954 39.6689 282.661 42.7952 278.607 44.3257C266.933 48.7329 250.31 55.002 234.86 60.8244C227.016 63.7806 219.156 66.766 217.393 67.4587C214.38 68.6426 212.73 69.7596 189.872 86.0938C169.748 100.475 165.485 103.396 165.145 103.04C164.919 102.803 161.727 98.2145 158.053 92.8424L151.372 83.0749L151.212 72.5067L151.051 61.9386L149.571 59.3766C148.757 57.9675 145.315 51.7707 141.922 45.606C133.417 30.1538 132.682 28.884 132.11 28.6649C131.835 28.5593 120.832 28.4728 107.659 28.4728H83.7095L42.7392 22.8685C20.2055 19.7861 1.4247 17.2642 1.00454 17.2642C0.0917782 17.2642 -0.327103 18.1074 0.296572 18.6889C0.541107 18.9166 5.21194 20.8695 10.6763 23.0286C16.1407 25.1874 28.3995 30.0439 37.918 33.8206C47.4366 37.5973 61.4261 43.1452 69.0057 46.1491C76.5853 49.1534 82.9451 51.773 83.1384 51.9712C83.3319 52.1691 85.8879 60.6896 88.8184 70.9055C91.7493 81.1214 96.5304 97.7543 99.4437 107.868L104.74 126.256V144.583V162.911L119.545 183.359L134.349 203.808L137.171 211.645L139.994 219.481L137.27 225.48C135.772 228.779 134.546 231.741 134.546 232.063C134.546 232.679 149.537 247.842 150.146 247.842C150.336 247.842 150.667 247.631 150.882 247.373C151.201 246.989 150.566 245.596 147.396 239.718C145.264 235.766 143.52 232.409 143.52 232.257C143.52 232.105 145.611 229.896 148.167 227.346C150.723 224.797 152.814 222.819 152.814 222.951C152.814 223.083 152.299 224.739 151.669 226.63C151.039 228.521 150.516 230.378 150.507 230.756C150.498 231.143 152.786 234.759 155.723 239.003C160.849 246.405 161.796 247.425 162.309 246.09C162.409 245.831 162.032 242.624 161.472 238.964C160.912 235.304 160.43 232.06 160.4 231.754C160.344 231.183 163.651 226.738 164.146 226.717C164.297 226.711 165.307 227.401 166.389 228.252C167.472 229.103 172.18 232.678 176.851 236.198C181.522 239.718 189.202 245.507 193.917 249.063C214.768 264.786 219.971 268.706 230.533 276.648C236.703 281.286 241.91 285.277 242.106 285.516C242.301 285.755 244.184 287.788 246.289 290.034C248.395 292.28 251.041 295.126 252.169 296.359C254.127 298.5 254.832 299.258 260.04 304.826C263.584 308.614 269.88 315.415 274.415 320.352C278.292 324.573 279.605 325.978 283.793 330.387C284.706 331.348 285.643 332.072 285.876 331.994C286.207 331.884 286.317 330.222 286.385 324.364L286.471 316.874L259.448 276.353C235.025 239.73 232.206 235.37 230.139 231.029C228.88 228.387 224.725 219.668 220.904 211.654C215.803 200.954 213.2 195.059 211.108 189.465C209.541 185.275 208.267 181.672 208.277 181.459C208.288 181.245 213.061 177.468 218.884 173.064C224.708 168.661 232.691 162.608 236.624 159.614C240.558 156.62 245.844 152.598 248.372 150.676C288.374 120.268 288.53 120.146 291.747 116.811C305.234 102.828 312.262 95.553 318.027 89.6079C320.495 87.0632 324.245 83.1825 326.36 80.9837C328.475 78.7852 333.893 73.168 338.4 68.5017C349.036 57.4897 350.042 56.4076 354.77 50.8901C365.826 37.9873 393.627 5.47588 395.828 2.87547C397.112 1.35718 397.337 0.478101 396.521 0.165219C396.242 0.058257 395.99 -0.0147578 395.96 0.00253548C395.931 0.0198288 393.166 1.08337 389.817 2.36564ZM392.335 3.89385C392.113 4.25862 385.57 11.9391 369.466 30.7382C354.296 48.4472 349.428 54.1748 349.335 54.4249C349.238 54.6847 339.667 57.9012 308.893 68.0165C301.049 70.5948 287.853 74.9406 279.568 77.6739C251.519 86.9281 232.829 93.0906 218.034 97.9619C209.926 100.632 196.369 105.1 187.908 107.891C179.447 110.682 165.693 115.218 157.343 117.971C148.993 120.724 142.105 122.919 142.035 122.85C141.966 122.781 158.479 110.896 178.732 96.4397L215.554 70.1558L249.965 57.1868C268.891 50.0539 288.846 42.5319 294.311 40.4715C299.775 38.411 310.087 34.5229 317.226 31.8315C324.365 29.1402 334.028 25.4948 338.699 23.7312C343.37 21.9676 356.999 16.8341 368.985 12.3237C380.972 7.81303 391.067 3.99089 391.42 3.8298C392.332 3.41284 392.616 3.43302 392.335 3.89385ZM33.2709 23.5215C45.5217 25.1935 61.386 27.3561 68.5249 28.3274C75.6639 29.2984 81.9016 30.1723 82.3862 30.2691L83.2675 30.4452V40.027C83.2675 45.2973 83.2028 49.6091 83.1236 49.6091C82.9256 49.6091 75.1059 46.5363 58.2692 39.8425C50.4252 36.7239 36.2916 31.11 26.8611 27.367C17.4307 23.6243 9.49851 20.473 9.2341 20.3645C8.9697 20.2562 9.25814 20.238 9.87508 20.3244C10.492 20.4106 21.0202 21.8495 33.2709 23.5215ZM134.769 36.6391C136.617 39.9857 140.64 47.2847 143.709 52.8596L149.289 62.9951V72.7507V82.5064L144.882 86.7622C140.476 91.017 123.623 107.434 112.504 118.302C109.26 121.472 106.506 124.104 106.383 124.15C106.26 124.196 101.44 107.84 95.6718 87.8024L85.1844 51.3704L85.1873 40.8801L85.1905 30.3901L108.299 30.4721L131.408 30.5544L134.769 36.6391ZM344.247 59.6168C343.345 60.5413 342 61.9466 341.258 62.7392C340.516 63.5318 338.015 66.1258 335.698 68.5036C333.383 70.8815 328.171 76.284 324.117 80.509C320.062 84.7341 316.168 88.7801 315.463 89.5C312.829 92.1894 305.61 99.6534 298.316 107.23C287.147 118.832 286.974 118.996 282.292 122.507C279.913 124.292 274.216 128.603 269.633 132.089C257.149 141.584 232.54 160.291 214.558 173.957L198.583 186.097L195.009 182.623C193.043 180.712 191.362 179.076 191.274 178.987C191.185 178.897 189.022 176.806 186.466 174.34C177.833 166.012 161.983 150.678 156.821 145.663C147.84 136.937 141.821 131.124 139.594 129.028C138.404 127.908 137.43 126.893 137.43 126.772C137.43 126.528 137.309 126.569 174.607 114.303C189.15 109.521 202.706 105.049 204.734 104.365C206.761 103.681 220.75 99.068 235.821 94.1141C250.892 89.1605 271.227 82.4616 281.01 79.2277C337.142 60.6736 345.297 57.988 345.578 57.963C345.749 57.948 345.15 58.6922 344.247 59.6168ZM156.753 94.3021C160.417 99.6707 163.477 104.241 163.552 104.457C163.633 104.687 157.605 109.185 149.118 115.23C133.449 126.388 133.56 126.287 135.385 127.722C136.133 128.31 140.333 132.347 158.899 150.327C161.809 153.145 166.281 157.474 168.838 159.948C179.872 170.623 183.067 173.718 187.908 178.418C195.957 186.233 198.138 188.259 198.509 188.268C198.699 188.272 200.491 187.051 202.49 185.554C204.49 184.057 206.227 182.832 206.35 182.832C206.551 182.832 211.477 195.708 211.337 195.867C211.306 195.903 194.844 197.374 174.756 199.137C154.667 200.901 137.689 202.407 137.026 202.485L135.821 202.627L121.242 182.454L106.663 162.281V144.428V126.574L110.109 123.273C112.004 121.457 116.223 117.362 119.486 114.173C122.748 110.984 130.463 103.475 136.631 97.486C142.799 91.4974 148.278 86.13 148.807 85.5584C149.336 84.9871 149.842 84.5243 149.93 84.5304C150.018 84.5361 153.088 88.9334 156.753 94.3021ZM212.844 199.084C213.113 199.745 214.512 202.735 215.954 205.729C217.395 208.724 219.013 212.11 219.549 213.255C220.085 214.4 222.107 218.651 224.043 222.702C225.978 226.754 227.817 230.645 228.129 231.349C228.441 232.054 229.741 234.792 231.017 237.434C232.726 240.97 234.299 245.105 236.978 253.104C238.98 259.082 240.57 264.019 240.512 264.077C240.454 264.135 237.031 262.58 232.906 260.621C228.78 258.662 224.396 256.587 223.162 256.01C221.928 255.433 219.404 254.243 217.553 253.366C215.702 252.489 208.636 249.139 201.849 245.922C195.063 242.705 188.357 239.531 186.946 238.868C177.033 234.211 181.637 237.402 146.311 210.693C139.714 205.705 138.198 204.424 138.782 204.329C140.081 204.118 209.33 197.963 210.868 197.923C212.3 197.885 212.374 197.929 212.844 199.084ZM146.052 212.897L153.842 218.783L150.153 222.504C143.992 228.717 141.279 231.648 141.278 232.092C141.277 232.325 142.122 234.054 143.156 235.935C145.678 240.522 145.815 240.796 145.599 240.796C145.495 240.796 143.409 238.776 140.961 236.307L136.511 231.817L138.595 227.26C139.742 224.753 140.982 222.005 141.35 221.152C142.12 219.373 142.313 220.246 139.232 211.56C138.245 208.778 137.623 206.616 137.85 206.756C138.076 206.896 141.767 209.659 146.052 212.897ZM159.224 222.86C160.722 223.972 162.08 225 162.243 225.143C162.412 225.294 161.724 226.396 160.625 227.736C159.574 229.019 158.609 230.24 158.48 230.451C158.352 230.661 158.612 233.17 159.059 236.025C159.506 238.88 159.834 241.254 159.788 241.299C159.665 241.421 152.494 230.98 152.494 230.678C152.494 230.535 153.23 228.138 154.13 225.349C155.286 221.769 155.874 220.361 156.133 220.558C156.335 220.711 157.726 221.747 159.224 222.86ZM189.35 242.158C190.672 242.768 195.864 245.219 200.888 247.604C232.008 262.377 242.09 267.069 242.533 266.985C242.808 266.933 243.071 266.603 243.119 266.253C243.168 265.902 241.764 261.302 240 256.03C238.236 250.757 236.839 246.398 236.895 246.342C236.951 246.286 247.765 262.38 260.927 282.108L284.856 317.976L284.85 323.34L284.843 328.704L283.167 326.928C282.245 325.951 279.977 323.514 278.126 321.512C276.275 319.51 274.614 317.716 274.435 317.524C274.256 317.332 273.041 316.022 271.734 314.613C268.221 310.823 265.747 308.16 263.397 305.638C259.963 301.952 257.96 299.786 253.927 295.398C251.822 293.109 249.285 290.371 248.289 289.314C247.292 288.257 245.733 286.578 244.824 285.583C243.915 284.587 240.689 281.903 237.653 279.617C234.619 277.332 227.304 271.819 221.399 267.366C215.494 262.914 205.399 255.309 198.965 250.468C188.564 242.641 185.563 240.309 186.626 240.878C186.802 240.972 188.028 241.548 189.35 242.158Z"
        fill="var(--primary-color)" />
</svg>