<svg width="397" height="100%" viewBox="0 0 397 442" fill="none" xmlns="http://www.w3.org/2000/svg">
    <path fillRule="evenodd" clipRule="evenodd"
        d="M173.287 1.06399C173.469 1.96712 175.515 15.5152 181.21 53.5217L182.427 61.646L179.172 67.5014C177.382 70.7217 174.803 75.3385 173.441 77.761C171.883 80.5309 164.097 91.617 152.459 107.635C142.28 121.644 132.688 134.847 131.142 136.976L128.332 140.848L126.595 153.446C125.64 160.375 124.268 170.353 123.546 175.619L122.234 185.194L123.857 194.195L125.48 203.196L135.805 203.291C144.373 203.37 156.208 202.874 205.312 200.377L264.492 197.368L289.582 200.515L314.672 203.661L317.927 205.297C321.812 207.247 335.311 213.829 340.784 216.441C342.927 217.463 344.806 218.503 344.959 218.751C345.113 218.999 346.231 223.867 347.444 229.569L349.651 239.936L344.458 265.894L339.266 291.853L344.432 303.635C347.79 311.292 349.899 316.643 350.458 318.92L351.319 322.424L365.508 331.171C373.851 336.314 379.825 340.235 380.007 340.689C380.179 341.113 383.097 356.334 386.493 374.513C391.606 401.887 393.056 410.467 394.93 424.457C396.174 433.747 397.102 441.495 396.991 441.674C396.88 441.853 392.251 442 386.703 442C378.979 442 376.575 441.888 376.445 441.521C376.351 441.258 377.266 436.258 378.479 430.411L380.685 419.779L370.738 392.876C365.267 378.079 360.584 365.787 360.331 365.56C360.078 365.332 358.489 363.867 356.801 362.304C355.112 360.741 351.753 357.652 349.335 355.441C346.918 353.229 343.555 350.126 341.862 348.546C340.169 346.967 334.744 341.968 329.808 337.439C324.871 332.91 319.189 327.694 317.18 325.848C315.171 324.002 313.338 322.564 313.106 322.653C312.874 322.742 311.708 322.937 310.513 323.086C309.319 323.236 308.275 323.467 308.193 323.6C308.112 323.733 312.239 330.175 317.366 337.915L326.686 351.987L323.877 360.321C315.573 384.95 297.573 437.553 297.23 438.194C296.851 438.902 296.323 438.936 285.738 438.936C276.188 438.936 274.643 438.857 274.643 438.368C274.643 438.055 279.385 430.152 285.18 420.804L295.717 403.808L297.73 386.6L299.744 369.393L290.056 352.171C284.727 342.699 279.359 333.14 278.126 330.928C272.279 320.441 267.273 311.568 267.106 311.397C266.921 311.206 265.736 312.424 262.153 316.485L260.196 318.703L253.726 319.445C250.167 319.853 241.222 320.913 233.849 321.801L220.442 323.414L202.262 323.628L184.081 323.843L177.639 334.438L171.197 345.033L166.842 360.099C164.448 368.386 160.993 380.371 159.167 386.733L155.846 398.301L157.979 418.933C159.152 430.28 160.112 440.113 160.112 440.782V442H145.94H131.767L131.762 440.564C131.759 439.774 132.47 429.921 133.342 418.668L134.926 398.209L133.512 389.56C128.518 359.027 122.807 330.922 120.485 325.453C119.784 323.803 119.935 323.903 108.976 317.866C104.762 315.545 101.122 313.441 100.885 313.191C100.649 312.94 94.7205 297.079 87.7104 277.944L74.9652 243.152L76.7472 205.364L78.5288 167.576L76.5089 165.661C75.3981 164.608 72.9838 162.367 71.144 160.682L67.7985 157.618L65.9886 147.698L64.1787 137.777L34.866 108.31C18.744 92.1034 5.43696 78.5565 5.29523 78.2064C5.15312 77.856 4.76356 73.6054 4.42916 68.7604C4.09476 63.9153 2.9617 48.3174 1.91101 34.0983C0.860311 19.8792 0.000384397 8.1159 1.35076e-06 7.9581C-0.000764742 7.8003 0.324439 7.67085 0.722425 7.67085C1.59079 7.67085 0.732004 4.55777 9.71483 40.2582L16.71 68.0579L19.6917 71.6647C21.3315 73.6483 24.0783 76.9774 25.7959 79.0628C27.5135 81.1479 29.2739 83.2817 29.7079 83.8045L30.497 84.7555L34.6301 69.4808C36.9031 61.0796 39.9023 49.9835 41.2947 44.8225C42.6871 39.6614 44.0044 35.3166 44.222 35.1676C44.4395 35.0183 44.7869 35.0658 44.9938 35.2726C45.2405 35.5192 44.6663 45.6536 43.3298 64.6526C42.2071 80.6044 41.3499 94.0257 41.4242 94.4777C41.5422 95.1958 48.1639 102.523 59.0175 113.945C60.8243 115.846 64.944 120.246 68.172 123.722C76.2761 132.448 75.5521 131.717 75.2227 130.842C75.071 130.44 74.144 128.63 73.1627 126.821C72.1813 125.011 69.8577 120.6 67.9988 117.019C66.1403 113.438 64.497 110.336 64.3472 110.125C64.1974 109.914 63.2605 108.172 62.2646 106.253L60.4543 102.764L62.4266 92.082C63.5114 86.2067 64.5721 81.2272 64.7839 81.0166C65.5791 80.2245 66.123 82.0782 67.9425 91.7855L69.8007 101.699L79.7691 117.211C85.2516 125.742 90.9433 134.317 92.4169 136.265L95.0967 139.808H101.508H107.919L108.179 137.166C108.416 134.767 108.606 134.315 110.24 132.272C111.23 131.034 117.082 123.708 123.244 115.992L134.448 101.962V91.6075C134.448 81.156 134.595 80.0368 135.808 81.2586C136.094 81.5466 137.86 86.0581 139.733 91.2838C141.605 96.5092 143.293 100.735 143.485 100.675C143.676 100.614 146.479 96.2587 149.713 90.9958C155.232 82.017 155.571 81.3555 155.212 80.2643C155.002 79.6247 152.054 71.6214 148.661 62.4787C145.268 53.3363 142.492 45.6233 142.492 45.3391C142.492 45.0549 142.794 44.8236 143.162 44.8255C143.609 44.8274 147.071 49.4821 153.555 58.803L163.277 72.7773L167.44 66.1191L171.604 59.4613V29.9913C171.604 13.7829 171.719 0.406369 171.859 0.266189C172.425 -0.299894 173.087 0.0697082 173.287 1.06399ZM173.136 36.494V60.083L168.713 67.1027C163.528 75.3331 163.508 75.3569 162.683 74.5315C162.351 74.1998 158.608 68.9308 154.366 62.8226C150.123 56.7144 146.579 51.7166 146.49 51.7166C146.402 51.7166 146.586 52.3631 146.901 53.1529C147.216 53.943 149.695 60.6215 152.409 67.9943C156.393 78.8147 157.269 81.5474 156.95 82.1656C156.732 82.5869 153.334 88.1883 149.397 94.6133C139.138 111.355 123.34 137.763 123.34 138.169C123.34 138.656 127.174 139.584 127.52 139.181C127.677 139 133.928 130.405 141.412 120.083C148.896 109.761 158.363 96.7091 162.45 91.0781C168.576 82.6363 170.839 79.1299 175.345 71.0894L180.81 61.3385L178.305 44.7501C173.827 15.0851 173.55 13.3198 173.342 13.1111C173.229 12.9981 173.136 23.5204 173.136 36.494ZM2.476 19.927C2.56832 20.875 3.54318 34.2323 4.64253 49.61L6.64125 77.5695L27.2189 98.2518C38.5368 109.627 53.9609 125.176 61.4947 132.805L75.1928 146.676L77.0954 145.061C78.1419 144.173 79.4511 143.075 80.0054 142.62L81.0132 141.794L80.0104 139.747C79.3427 138.385 76.8483 135.39 72.541 130.779C54.9155 111.91 49.7811 106.429 47.0933 103.614C39.6013 95.768 39.5185 95.6581 39.6932 93.8051C40.2314 88.1022 42.9161 47.898 42.8223 46.9428C42.753 46.235 40.7044 53.1938 37.5857 64.7338C31.4803 87.3212 31.4761 87.3362 31.0202 87.3362C30.5192 87.3362 29.3214 85.9669 21.8892 76.8992C16.5277 70.3579 15.2732 68.596 14.8005 66.9411C14.4845 65.8349 11.9725 55.9679 9.2184 45.014C3.25053 21.2756 2.24235 17.5241 2.476 19.927ZM64.9298 87.3867C64.8065 87.8854 64.1201 91.4822 63.4045 95.3793L62.1033 102.465L66.1533 110.125C68.3807 114.338 70.7575 118.819 71.4351 120.083C72.1127 121.347 73.9303 124.794 75.4743 127.743C77.0184 130.692 79.1117 134.639 80.1264 136.514C81.1407 138.389 81.9708 140.07 81.9708 140.248C81.9708 140.857 82.3826 140.576 85.7744 137.662L89.1633 134.75L78.7432 118.592L68.3236 102.434L66.8646 94.598C66.0621 90.288 65.3489 86.6981 65.2795 86.6207C65.2106 86.5433 65.0531 86.888 64.9298 87.3867ZM135.992 94.5049L135.98 102.631L129.173 111.166C113.399 130.943 110.886 134.117 110.8 134.37C110.634 134.862 121.426 137.818 121.71 137.358C125.148 131.806 142.109 103.258 142.109 103.024C142.109 102.586 136.754 87.6843 136.334 86.9532C136.141 86.6173 135.999 89.7556 135.992 94.5049ZM109.785 136.866C109.326 138.577 109.606 142.766 111.422 161.296L113.284 180.294L115.343 184.175C116.476 186.309 117.511 188.058 117.644 188.061C117.776 188.064 118.516 187.297 119.287 186.356L120.689 184.646L122.416 172.089C123.366 165.183 124.71 155.483 125.402 150.532C126.095 145.582 126.547 141.398 126.408 141.234C126.268 141.071 122.72 139.902 118.523 138.637C114.325 137.372 110.692 136.268 110.45 136.184C110.207 136.1 109.908 136.407 109.785 136.866ZM83.503 141.746C80.0269 144.702 76.9705 147.33 76.7112 147.588C76.3381 147.958 77.3658 150.419 81.6234 159.348C84.5847 165.559 87.4936 171.674 88.0873 172.938C89.5057 175.957 92.4494 182.159 95.2759 188.085L97.5504 192.854L102.267 194.872C104.861 195.981 107.038 196.835 107.105 196.768C107.171 196.701 105.771 194.414 103.993 191.687C102.214 188.958 100.755 186.498 100.75 186.219C100.744 185.94 101.44 184.532 102.296 183.092L103.852 180.473L98.947 160.811L94.0414 141.149L92.3016 138.878C91.3444 137.629 90.3951 136.554 90.1925 136.49C89.9895 136.425 86.9791 138.79 83.503 141.746ZM66.2659 140.218C66.2659 140.331 66.9504 144.12 67.7866 148.637L69.3077 156.852L72.0725 159.341C73.5936 160.711 75.6237 162.552 76.5848 163.433L78.3319 165.036L78.5739 164.008C78.7069 163.443 78.8363 161.74 78.8612 160.225C78.9041 157.612 78.7904 157.226 76.6545 152.756C74.5056 148.259 74.216 147.858 70.3342 144.028C68.0965 141.82 66.2659 140.106 66.2659 140.218ZM95.9018 142.01C96.0079 142.379 98.0082 150.35 100.347 159.724C102.686 169.098 104.772 177.415 104.983 178.204L105.366 179.641H108.416C111.404 179.641 111.465 179.622 111.465 178.694C111.465 178.173 110.69 169.828 109.742 160.149C108.794 150.471 108.018 142.279 108.018 141.946C108.018 141.419 107.219 141.34 101.864 141.34C96.1837 141.34 95.7237 141.392 95.9018 142.01ZM80.2819 163.972C80.1521 165.743 79.2607 184.154 78.3012 204.883L76.5561 242.574L79.006 245.099C80.3536 246.488 84.1143 250.375 87.3633 253.736C90.6123 257.098 96.6465 263.303 100.773 267.525C104.899 271.746 109.015 276.02 109.919 277.02C111.771 279.069 112.132 279.208 112.416 277.978C112.526 277.504 115.795 264.059 119.681 248.101L126.745 219.086L123.904 203.332C121.283 188.796 120.881 186.882 120.537 187.333C119.524 188.66 110.601 199.158 110.239 199.448C109.876 199.739 108.006 199.101 103.305 197.082C99.7641 195.561 96.6472 194.074 96.3779 193.777C95.9769 193.335 90.0703 181.06 81.9424 163.78L80.5175 160.75L80.2819 163.972ZM103.674 183.854L102.305 186.152L106.065 191.896L109.825 197.641L113.153 193.631L116.481 189.622L115.373 187.6C114.763 186.487 113.78 184.673 113.187 183.566L112.11 181.556H108.576H105.043L103.674 183.854ZM202.056 202.068C172.351 203.608 147.231 204.923 146.234 204.99L144.422 205.111L148.275 213.345C150.394 217.874 152.529 222.442 153.02 223.495C153.512 224.548 155.328 228.426 157.056 232.113C158.785 235.799 161.276 241.142 162.593 243.986C163.909 246.83 168.219 256.05 172.171 264.477C176.123 272.903 181.296 283.933 183.667 288.989C186.038 294.045 189.034 300.433 190.325 303.186C191.615 305.939 192.671 308.541 192.671 308.968C192.671 309.395 191.034 312.447 189.032 315.75C187.031 319.053 185.393 321.839 185.393 321.941C185.393 322.044 192.148 322.083 200.404 322.028L215.415 321.928L216.864 318.289C217.66 316.288 221.438 306.55 225.259 296.649C229.079 286.748 236.167 268.393 241.01 255.859C258.531 210.509 262.769 199.501 262.769 199.339C262.769 198.979 254.015 199.373 202.056 202.068ZM264.556 199.461C264.461 199.619 262.829 203.799 260.931 208.749C257.215 218.44 248.867 240.057 235.004 275.891C230.211 288.277 226.354 298.459 226.431 298.517C226.508 298.576 237.861 297.974 251.66 297.18C265.46 296.386 277.353 295.733 278.091 295.728C279.609 295.717 278.899 295.083 296.548 312.22L306.77 322.145L325.851 318.885C336.345 317.092 345.493 315.527 346.177 315.407C346.862 315.288 347.422 315.021 347.422 314.814C347.422 314.606 345.267 309.538 342.634 303.551C340.001 297.563 337.846 292.265 337.846 291.776C337.846 291.287 340.09 279.688 342.834 266C345.577 252.312 347.774 240.825 347.717 240.472C347.634 239.954 336.448 228.361 315.611 207.196L313.487 205.037L289.564 202.097C276.407 200.48 265.436 199.16 265.185 199.165C264.935 199.17 264.651 199.303 264.556 199.461ZM126.021 205.496C126.021 205.822 126.537 208.943 127.167 212.432C127.797 215.92 129.604 228.196 131.182 239.711C132.76 251.225 136.296 277.011 139.038 297.011L144.024 333.376V346.132C144.024 353.148 144.115 358.888 144.225 358.888C144.429 358.888 161.156 349.231 166.844 345.83L169.936 343.981L180.537 326.57C186.368 316.994 191.139 309.076 191.139 308.975C191.139 308.812 188.129 302.315 183.477 292.436C181.788 288.85 180.17 285.381 178.205 281.137C177.571 279.768 176.241 276.924 175.25 274.818C174.258 272.711 168.648 260.733 162.784 248.199C156.92 235.665 149.984 220.843 147.371 215.26L142.62 205.111L134.32 205.007C127.043 204.917 126.021 204.977 126.021 205.496ZM318.694 207.851C318.694 207.972 322.204 211.627 326.495 215.974C330.786 220.321 337.266 226.894 340.896 230.581C344.526 234.267 347.422 237.025 347.331 236.709C347.24 236.393 346.404 232.445 345.474 227.935L343.783 219.737L333.632 214.777C321.719 208.956 318.694 207.553 318.694 207.851ZM126.861 225.41C126.634 226.253 123.68 238.317 120.297 252.22C116.914 266.124 113.931 278.359 113.668 279.409C113.383 280.546 112.951 281.365 112.602 281.432C112.271 281.495 110.431 279.91 108.383 277.798C106.385 275.738 99.5818 268.716 93.2645 262.195C77.4156 245.835 77.9775 246.393 78.2173 247.252C78.4031 247.918 94.0789 290.65 99.9008 306.362L102.081 312.244L113.426 318.504C123.083 323.831 126.037 325.257 133.271 328.079C137.945 329.903 141.848 331.317 141.943 331.222C142.039 331.127 141.077 323.481 139.807 314.232C135.196 280.659 134.023 272.106 130.803 248.582C129.001 235.416 127.469 224.472 127.4 224.261C127.331 224.05 127.088 224.567 126.861 225.41ZM250.952 298.764C237.185 299.56 225.783 300.357 225.616 300.536C225.296 300.879 217.161 321.842 217.298 321.97C217.427 322.09 259.359 317.232 259.478 317.084C259.916 316.539 268.02 307.471 272.941 302.022C276.827 297.718 277.212 297.203 276.485 297.27C276.21 297.296 264.72 297.968 250.952 298.764ZM275.709 301.377C273.886 303.411 272.011 305.506 271.543 306.033C271.074 306.559 270.101 307.615 269.38 308.379L268.069 309.768L278.387 328.104C284.063 338.189 291.274 351.007 294.411 356.59C297.863 362.732 300.153 366.437 300.21 365.973C300.261 365.552 301.516 355.814 302.998 344.333L305.691 323.46L299.813 317.714C290.716 308.824 283.48 301.822 281.147 299.653L279.023 297.679L275.709 301.377ZM331.847 319.422C323.596 320.858 316.634 322.103 316.374 322.19C316.114 322.276 321.31 327.337 327.92 333.436C334.531 339.535 340.215 344.783 340.551 345.099C345.755 349.982 359.676 362.718 359.811 362.718C359.887 362.718 358.248 356.039 356.168 347.876C354.089 339.714 351.475 329.415 350.361 324.992C348.623 318.091 348.23 316.939 347.591 316.88C347.182 316.842 340.097 317.986 331.847 319.422ZM352.022 324.877C352.024 324.94 354.322 334.04 357.128 345.099L362.231 365.207L372.288 392.398L382.346 419.59L380.376 429.167C379.292 434.435 378.31 439.132 378.194 439.606L377.983 440.468H386.643C394.287 440.468 395.303 440.397 395.303 439.862C395.303 439.528 394.354 432.16 393.194 423.488C391.484 410.706 389.922 401.522 384.945 374.974C381.568 356.963 378.725 341.96 378.626 341.634C378.527 341.307 372.732 337.516 365.749 333.207C351.122 324.185 352.017 324.728 352.022 324.877ZM122.377 325.837C123.126 327.673 126.163 340.593 127.893 349.312C130.392 361.906 131.385 367.372 134.015 383.019C135.201 390.077 136.313 395.906 136.485 395.974C136.657 396.042 138.081 394.945 139.648 393.537L142.497 390.977L142.399 362.197L142.301 333.418L133.491 329.935C128.645 328.019 124.099 326.159 123.388 325.801C122.156 325.181 122.109 325.182 122.377 325.837ZM306.816 326.236C306.815 326.605 305.777 334.921 304.51 344.716C303.243 354.512 301.081 371.965 299.707 383.501L297.207 404.476L287.421 420.27C282.038 428.956 277.472 436.365 277.274 436.734C276.936 437.364 277.485 437.404 286.412 437.404H295.91L310.366 394.973C318.317 371.636 324.822 352.417 324.822 352.264C324.822 351.897 307.253 325.566 307.008 325.566C306.904 325.566 306.818 325.867 306.816 326.236ZM160.1 351.665C155.367 354.412 149.813 357.629 147.759 358.813L144.024 360.966V387.211V413.456L145.305 411.546C146.01 410.495 148.323 406.964 150.446 403.699L154.305 397.763L161.633 372.343C165.663 358.363 168.903 346.867 168.833 346.798C168.763 346.728 164.834 348.918 160.1 351.665ZM139.347 395.951C137.933 397.158 136.685 398.49 136.574 398.912C136.403 399.557 133.295 438.549 133.298 440.001C133.299 440.379 134.339 440.467 137.8 440.384L142.301 440.276L142.399 417.009C142.454 404.212 142.368 393.745 142.208 393.748C142.048 393.752 140.761 394.744 139.347 395.951ZM149.07 408.762L144.027 416.53L144.025 428.499L144.024 440.468H151.354H158.684L158.469 438.84C158.351 437.945 157.441 429.198 156.447 419.403C155.452 409.607 154.52 401.458 154.376 401.294C154.231 401.129 151.844 404.49 149.07 408.762Z"
        fill="var(--primary-color)" />
</svg>